<?xml version="1.0" encoding="UTF-8" standalone="no"?>
<!-- Created with Inkscape (http://www.inkscape.org/) -->

<svg
   width="500"
   height="500"
   viewBox="0 0 132.29166 132.29167"
   version="1.1"
   id="svg1"
   inkscape:export-filename="coffee-logo.svg"
   inkscape:export-xdpi="96"
   inkscape:export-ydpi="96"
   inkscape:version="1.3.2 (1:1.3.2+202311252150+091e20ef0f)"
   sodipodi:docname="logo-art.svg"
   xmlns:inkscape="http://www.inkscape.org/namespaces/inkscape"
   xmlns:sodipodi="http://sodipodi.sourceforge.net/DTD/sodipodi-0.dtd"
   xmlns="http://www.w3.org/2000/svg"
   xmlns:svg="http://www.w3.org/2000/svg">
  <sodipodi:namedview
     id="namedview1"
     pagecolor="#ffffff"
     bordercolor="#000000"
     borderopacity="0.25"
     inkscape:showpageshadow="2"
     inkscape:pageopacity="0.0"
     inkscape:pagecheckerboard="0"
     inkscape:deskcolor="#d1d1d1"
     inkscape:document-units="mm"
     inkscape:zoom="0.67882997"
     inkscape:cx="396.27007"
     inkscape:cy="169.40914"
     inkscape:window-width="1920"
     inkscape:window-height="962"
     inkscape:window-x="0"
     inkscape:window-y="0"
     inkscape:window-maximized="1"
     inkscape:current-layer="SvgjsG1013" />
  <defs
     id="defs1" />
  <g
     inkscape:label="Layer 1"
     inkscape:groupmode="layer"
     id="layer1">
    <g
       transform="matrix(1.1909695,0,0,1.1909695,8.4630886,1.3109935)"
       class="css-n7rco1"
       fill="#632382"
       id="g15"
       style="stroke-width:0.260123">
      <path
         fill="none"
         d="m 26.499,18.3 c 1.587,2.066 6.308,4.479 19.77,4.242 0.241,-0.004 23.877,-0.317 27.11,-4.805 0.309,-0.428 0.389,-0.871 0.251,-1.351 -4.06,-5.424 -19.675,-5.711 -22.888,-5.711 -0.627,0 -0.985,0.008 -0.988,0.008 -20.928,0.628 -23.706,4.89 -23.915,5.282 l -0.053,0.429 c -0.001,0.424 0.112,1.123 0.713,1.906 z m 4.344,0.894 c 0.045,-0.765 0.934,-1.137 2.714,-1.137 0.218,0 0.443,0.006 0.669,0.02 1.233,0.073 3.293,0.366 3.226,1.51 -0.046,0.763 -0.932,1.136 -2.711,1.136 -0.219,0 -0.444,-0.007 -0.671,-0.019 -1.234,-0.073 -3.294,-0.368 -3.227,-1.51 z"
         id="path1"
         style="stroke-width:0.260123" />
      <path
         fill="none"
         d="m 46.28,23.356 c -0.608,0.012 -1.201,0.016 -1.775,0.016 -12.509,0 -17.072,-2.479 -18.681,-4.613 -0.107,-0.142 -0.197,-0.282 -0.281,-0.42 l -0.438,3.494 -0.003,0.005 c -0.069,0.594 -0.151,3.677 5.243,5.694 1.633,0.61 7.817,2.212 16.682,2.283 6.167,0.048 13.713,-0.634 17.948,-1.622 2.269,-0.533 8.353,-2.286 9.836,-4.078 l -0.64,-6.103 c -0.041,0.065 -0.082,0.136 -0.13,0.2 -3.471,4.82 -26.77,5.133 -27.761,5.144 z"
         id="path2"
         style="stroke-width:0.260123" />
      <path
         fill="none"
         d="m 47.65,30.634 c -0.212,0 -0.422,-0.002 -0.63,-0.003 -8.034,-0.062 -14.545,-1.431 -16.961,-2.333 -4.429,-1.657 -5.51,-4.064 -5.735,-5.507 -1.15,1.545 -1.632,2.97 -1.429,4.243 0.268,1.68 1.653,2.515 1.666,2.522 7.086,4.373 21.635,4.713 25.924,4.713 0.849,0 1.335,-0.014 1.339,-0.014 20.812,-1.094 23.363,-4.229 23.387,-4.261 l 0.035,-0.056 0.042,-0.027 c 0.844,-0.702 1.276,-1.479 1.282,-2.314 0.01,-1.207 -0.846,-2.274 -1.312,-2.764 -2.247,2.286 -9.764,4.073 -10.099,4.153 -4.145,0.969 -11.41,1.648 -17.509,1.648 z"
         id="path3"
         style="stroke-width:0.260123" />
      <path
         d="m 25.896,30.997 0.032,0.216 c 7.667,3.575 20.545,3.872 24.557,3.872 0.867,0 1.361,-0.015 1.373,-0.015 14.1,-0.74 19.971,-2.376 22.393,-3.499 l 0.068,-0.574 c -0.001,0 -24.212,8.343 -48.423,0 z"
         id="path4"
         style="stroke-width:0.260123" />
      <path
         d="m 25.103,21.838 c 0.005,-0.051 0.012,-0.087 0.015,-0.099 l -0.4,-0.08 0.399,0.084 -0.799,-0.169 c -0.012,0.057 -0.101,0.526 0.007,1.217 0.211,-0.283 0.442,-0.57 0.699,-0.864 z"
         id="path5"
         style="stroke-width:0.260123" />
      <path
         d="m 74.968,24.548 c 0.005,0.005 0.124,0.107 0.292,0.286 0.116,-0.117 0.219,-0.237 0.305,-0.358 L 74.9,24.001 c -0.027,0.038 -0.06,0.077 -0.092,0.114 l 0.035,0.328 z"
         id="path6"
         style="stroke-width:0.260123" />
      <g
         id="g11"
         style="stroke-width:0.260123">
        <path
           d="m 50.485,35.085 c -4.012,0 -16.891,-0.297 -24.557,-3.872 l 8.31,54.732 c 0,0 3.52,5.623 19.17,5.08 0,0 12.021,-0.727 14.562,-6.166 L 74.249,31.57 c -2.421,1.123 -8.292,2.759 -22.393,3.499 -0.01,10e-4 -0.504,0.016 -1.371,0.016 z"
           id="path7"
           style="stroke-width:0.260123" />
        <path
           d="M 75.623,24.042 74.869,16.848 74.836,16.782 C 71.6,10.358 55.576,9.859 50.742,9.859 c -0.643,0 -1.008,0.01 -1.011,0.01 -22.693,0.679 -24.606,5.646 -24.677,5.856 l -10e-4,0.012 0.779,0.236 -0.39,-0.118 0.391,0.116 v 0.002 c -0.007,0.025 -0.046,0.177 -0.047,0.422 l 0.053,-0.429 c 0.209,-0.393 2.987,-4.654 23.915,-5.282 0.003,0 0.361,-0.008 0.988,-0.008 3.213,0 18.828,0.287 22.888,5.711 -0.005,-0.021 -0.009,-0.041 -0.015,-0.06 l 0.775,-0.249 c 0.219,0.681 0.145,1.33 -0.22,1.935 l 0.64,6.103 c 0.031,-0.037 0.063,-0.076 0.092,-0.114 l 0.664,0.475 c -0.086,0.121 -0.189,0.241 -0.305,0.358 0.463,0.489 1.319,1.557 1.311,2.764 -0.006,0.835 -0.438,1.612 -1.282,2.314 l -0.042,0.027 -0.035,0.056 c -0.023,0.032 -2.572,3.167 -23.387,4.261 -0.003,0 -0.49,0.014 -1.339,0.014 -4.29,0 -18.838,-0.34 -25.924,-4.713 -0.013,-0.008 -1.398,-0.843 -1.666,-2.522 -0.203,-1.273 0.279,-2.698 1.429,-4.243 -0.108,-0.69 -0.019,-1.16 -0.007,-1.217 l 0.799,0.169 -0.399,-0.084 0.4,0.08 c -0.002,0.012 -0.009,0.048 -0.015,0.099 l 0.003,-0.005 0.438,-3.494 c -0.47,-0.784 -0.574,-1.488 -0.569,-1.968 l -0.646,5.113 c -1.762,2.037 -2.515,3.945 -2.238,5.679 0.327,2.054 1.987,3.055 2.05,3.094 0.555,0.342 1.154,0.659 1.789,0.956 l -0.032,-0.216 c 24.211,8.343 48.421,0 48.421,0 l -0.067,0.574 c 1.065,-0.494 1.465,-0.891 1.601,-1.064 1.012,-0.854 1.528,-1.83 1.537,-2.902 0.009,-1.744 -1.341,-3.163 -1.768,-3.565 z"
           id="path8"
           style="stroke-width:0.260123" />
        <path
           d="m 34.069,20.704 c 0.227,0.012 0.452,0.019 0.671,0.019 1.779,0 2.666,-0.373 2.711,-1.136 0.068,-1.144 -1.992,-1.437 -3.226,-1.51 -0.226,-0.014 -0.451,-0.02 -0.669,-0.02 -1.78,0 -2.668,0.372 -2.714,1.137 -0.066,1.142 1.994,1.437 3.227,1.51 z"
           id="path9"
           style="stroke-width:0.260123" />
        <path
           d="m 64.975,28.193 c -4.234,0.988 -11.781,1.67 -17.948,1.622 -8.865,-0.071 -15.048,-1.673 -16.682,-2.283 -5.394,-2.018 -5.312,-5.101 -5.243,-5.694 l -0.079,0.089 c -0.257,0.294 -0.488,0.581 -0.699,0.864 0.225,1.442 1.306,3.85 5.735,5.507 2.417,0.902 8.928,2.271 16.961,2.333 0.208,0.001 0.418,0.003 0.63,0.003 6.098,0 13.364,-0.679 17.511,-1.646 0.334,-0.08 7.851,-1.867 10.099,-4.153 -0.169,-0.179 -0.287,-0.281 -0.292,-0.286 l -0.122,-0.104 -0.035,-0.328 c -1.484,1.79 -7.568,3.543 -9.836,4.076 z"
           id="path10"
           style="stroke-width:0.260123" />
        <path
           d="m 44.505,23.372 c 0.574,0 1.167,-0.004 1.775,-0.016 0.991,-0.012 24.291,-0.324 27.761,-5.144 0.048,-0.064 0.089,-0.135 0.13,-0.2 l -0.097,-0.931 c -0.127,-0.241 -0.276,-0.472 -0.444,-0.695 0.138,0.479 0.058,0.923 -0.251,1.351 -3.232,4.487 -26.87,4.801 -27.11,4.805 C 32.807,22.779 28.087,20.366 26.499,18.3 25.898,17.517 25.785,16.819 25.786,16.395 l -0.243,1.944 c 0.083,0.138 0.173,0.278 0.281,0.42 1.609,2.135 6.172,4.613 18.681,4.613 z"
           id="path11"
           style="stroke-width:0.260123" />
      </g>
      <path
         d="m 25.052,15.736 c -0.007,0.021 -0.074,0.26 -0.078,0.635 l 0.08,-0.635 z"
         id="path12"
         style="stroke-width:0.260123" />
      <polygon
         points="25.833,15.973 25.833,15.971 25.442,15.854 "
         id="polygon12"
         style="stroke-width:0.260123" />
      <path
         d="M 25.833,15.973 Z"
         id="path13"
         style="stroke-width:0.260123" />
      <path
         d="m 25.543,18.339 0.243,-1.944 c 10e-4,-0.245 0.04,-0.396 0.046,-0.422 l -0.779,-0.236 -0.08,0.635 c -0.004,0.479 0.1,1.183 0.57,1.967 z"
         id="path14"
         style="stroke-width:0.260123" />
      <path
         d="m 74.171,18.013 c 0.363,-0.604 0.438,-1.254 0.22,-1.935 l -0.775,0.249 c 0.005,0.019 0.009,0.039 0.015,0.06 0.168,0.224 0.317,0.454 0.444,0.695 z"
         id="path15"
         style="stroke-width:0.260123" />
    </g>
  </g>
  <g
     inkscape:groupmode="layer"
     id="layer2"
     inkscape:label="Layer 2">
    <g
       id="SvgjsG1013"
       featurekey="vMvB0T-0"
       transform="matrix(1.402934,0,0,1.402934,56.490732,-62.311943)"
       fill="#000000"
       style="stroke-width:0.411506">
      <path
         d="m 8.66,11.78 v -0.24 q 0,-2.96 -2.2,-2.96 -1.26,0 -1.82,1.15 -0.56,1.15 -0.56,3.39 0,2.22 0.7,3.3 0.7,1.08 2.04,1.08 0.7,0 1.55,-0.33 0.85,-0.33 1.85,-1.05 0.5,0.34 0.93,0.93 0.43,0.59 0.53,1.13 -0.46,0.44 -1.07,0.83 Q 10,19.4 9.29,19.68 8.58,19.96 7.81,20.13 7.04,20.3 6.26,20.3 4.72,20.3 3.66,19.71 2.6,19.12 1.95,18.14 1.3,17.16 1.01,15.88 0.72,14.6 0.72,13.22 0.72,11.42 1.17,10.07 1.62,8.72 2.39,7.82 3.16,6.92 4.2,6.47 5.24,6.02 6.42,6.02 q 1.2,0 2.18,0.32 0.98,0.32 1.67,0.88 0.69,0.56 1.06,1.32 0.37,0.76 0.37,1.64 0,1.78 -1.82,1.78 -0.54,0 -1.22,-0.18 z m 7.9,4.5 q 0.54,1.56 2.18,1.56 0.82,0 1.33,-0.41 0.51,-0.41 0.8,-1.04 0.29,-0.63 0.39,-1.41 0.1,-0.78 0.1,-1.54 0,-0.7 -0.05,-1.56 Q 21.26,11.02 21.02,10.27 20.78,9.52 20.26,9.01 19.74,8.5 18.74,8.5 q -0.96,0 -1.47,0.49 -0.51,0.49 -0.76,1.21 -0.25,0.72 -0.31,1.53 -0.06,0.81 -0.06,1.43 0,0.92 0.09,1.64 0.09,0.72 0.33,1.48 z m -1.62,2.76 q -2.14,-1.78 -2.14,-5.86 0,-1.76 0.41,-3.09 0.41,-1.33 1.18,-2.23 0.77,-0.9 1.87,-1.36 1.1,-0.46 2.48,-0.46 1.38,0 2.49,0.46 1.11,0.46 1.88,1.37 0.77,0.91 1.18,2.24 0.41,1.33 0.41,3.07 0,1.74 -0.41,3.07 -0.41,1.33 -1.18,2.23 -0.77,0.9 -1.88,1.36 -1.11,0.46 -2.49,0.46 -2.28,0 -3.8,-1.26 z m 15.18,-9.98 0.02,1.56 v 1.26 h 4.28 q 0.16,0.6 0.16,1.31 0,0.71 -0.16,1.31 H 30.14 V 20 q -0.64,0.12 -1.6,0.12 -0.96,0 -1.6,-0.12 V 6.46 l 0.14,-0.12 h 8.56 q 0.12,0.5 0.12,1.25 0,0.75 -0.41,1.11 -0.41,0.36 -1.29,0.36 z m 10.7,0 0.02,1.56 v 1.26 h 4.28 q 0.16,0.6 0.16,1.31 0,0.71 -0.16,1.31 H 40.84 V 20 q -0.64,0.12 -1.6,0.12 -0.96,0 -1.6,-0.12 V 6.46 l 0.14,-0.12 h 8.56 q 0.12,0.5 0.12,1.25 0,0.75 -0.41,1.11 -0.41,0.36 -1.29,0.36 z m 10.66,6.9 -0.02,1.44 v 0.02 q 0.92,-0.04 1.48,-0.04 h 4.64 q 0,0.74 -0.06,1.14 -0.24,1.54 -2.04,1.54 h -5.32 q -0.86,0 -1.35,-0.5 -0.49,-0.5 -0.49,-1.36 V 6.48 l 0.14,-0.14 h 8.62 q 0.12,0.58 0.12,1.26 0,0.68 -0.28,1.42 h -5.46 l 0.02,1.44 v 1.4 Q 52,11.84 52.84,11.84 h 3.06 q 0.18,0.56 0.18,1.28 0,0.72 -0.18,1.32 h -4.42 z m 11.46,0 -0.02,1.44 v 0.02 q 0.92,-0.04 1.48,-0.04 h 4.64 q 0,0.74 -0.06,1.14 -0.24,1.54 -2.04,1.54 h -5.32 q -0.86,0 -1.35,-0.5 -0.49,-0.5 -0.49,-1.36 V 6.48 l 0.14,-0.14 h 8.62 q 0.12,0.58 0.12,1.26 0,0.68 -0.28,1.42 h -5.46 l 0.02,1.44 v 1.4 q 0.52,-0.02 1.36,-0.02 h 3.06 q 0.18,0.56 0.18,1.28 0,0.72 -0.18,1.32 h -4.42 z m 12.3,4 1.06,-13.6 q 0.88,-0.16 2.08,-0.16 1.2,0 2.1,0.16 l 1.18,4.9 q 0.7,3.32 0.74,3.62 h 0.14 q 0.08,-0.5 0.74,-3.62 l 1.2,-4.9 q 0.88,-0.16 2.08,-0.16 1.2,0 2.1,0.16 l 1.06,13.6 q -0.62,0.16 -1.53,0.16 -0.91,0 -1.49,-0.1 L 86.38,14.46 Q 86.24,11.14 86.22,9.84 H 86.1 l -1.98,8.14 q -0.72,0.12 -1.65,0.12 -0.93,0 -1.65,-0.12 L 78.86,9.84 h -0.14 q 0,1.78 -0.16,4.62 l -0.3,5.56 q -0.58,0.1 -1.49,0.1 -0.91,0 -1.53,-0.16 z m 20.04,-3.68 q 0.54,1.56 2.18,1.56 0.82,0 1.33,-0.41 0.51,-0.41 0.8,-1.04 0.29,-0.63 0.39,-1.41 0.1,-0.78 0.1,-1.54 0,-0.7 -0.05,-1.56 Q 99.98,11.02 99.74,10.27 99.5,9.52 98.98,9.01 98.46,8.5 97.46,8.5 q -0.96,0 -1.47,0.49 -0.51,0.49 -0.76,1.21 -0.25,0.72 -0.31,1.53 -0.06,0.81 -0.06,1.43 0,0.92 0.09,1.64 0.09,0.72 0.33,1.48 z m -1.62,2.76 q -2.14,-1.78 -2.14,-5.86 0,-1.76 0.41,-3.09 0.41,-1.33 1.18,-2.23 0.77,-0.9 1.87,-1.36 1.1,-0.46 2.48,-0.46 1.38,0 2.49,0.46 1.11,0.46 1.88,1.37 0.77,0.91 1.18,2.24 0.41,1.33 0.41,3.07 0,1.74 -0.41,3.07 -0.41,1.33 -1.18,2.23 -0.77,0.9 -1.88,1.36 -1.11,0.46 -2.49,0.46 -2.28,0 -3.8,-1.26 z m 11.58,0.92 1.06,-13.6 q 0.88,-0.16 2.08,-0.16 1.2,0 2.1,0.16 l 1.18,4.9 q 0.7,3.32 0.74,3.62 h 0.14 q 0.08,-0.5 0.74,-3.62 l 1.2,-4.9 q 0.88,-0.16 2.08,-0.16 1.2,0 2.1,0.16 l 1.06,13.6 q -0.62,0.16 -1.53,0.16 -0.91,0 -1.49,-0.1 l -0.32,-5.56 q -0.14,-3.32 -0.16,-4.62 h -0.12 l -1.98,8.14 q -0.72,0.12 -1.65,0.12 -0.93,0 -1.65,-0.12 l -1.96,-8.14 h -0.14 q 0,1.78 -0.16,4.62 l -0.3,5.56 q -0.58,0.1 -1.49,0.1 -0.91,0 -1.53,-0.16 z m 15.86,-1.14 q 0.06,-0.66 0.41,-1.32 0.35,-0.66 0.83,-1.08 2.14,1.3 4.06,1.3 0.84,0 1.23,-0.38 0.39,-0.38 0.39,-0.94 0,-0.94 -1.26,-1.48 l -2.36,-1 q -1.38,-0.62 -2.12,-1.49 -0.74,-0.87 -0.74,-2.21 0,-0.92 0.37,-1.68 0.37,-0.76 1.04,-1.32 0.67,-0.56 1.59,-0.87 0.92,-0.31 2.04,-0.31 2.24,0 4.52,1.14 -0.1,1.54 -1.08,2.4 -2.04,-0.98 -3.6,-0.98 -0.8,0 -1.2,0.36 -0.4,0.36 -0.4,0.82 0,0.78 1.18,1.26 l 2.4,1.02 q 1.52,0.64 2.27,1.64 0.75,1 0.75,2.32 0,0.94 -0.34,1.72 -0.34,0.78 -1.01,1.35 -0.67,0.57 -1.67,0.89 -1,0.32 -2.34,0.32 -2.6,0 -4.96,-1.48 z"
         id="path16"
         style="stroke-width:0.411506"
         inkscape:export-filename="text-logo.svg"
         inkscape:export-xdpi="96"
         inkscape:export-ydpi="96" />
    </g>
  </g>
</svg>
