<?xml version="1.0" encoding="UTF-8" standalone="no"?>
<!-- Created with Inkscape (http://www.inkscape.org/) -->

<svg
   width="249.16945"
   height="365.51895"
   viewBox="0 0 65.92608 96.710225"
   version="1.1"
   id="svg1"
   xmlns="http://www.w3.org/2000/svg"
   xmlns:svg="http://www.w3.org/2000/svg">
  <defs
     id="defs1" />
  <g
     id="layer1"
     transform="translate(-34.707384,-13.052763)">
    <g
       transform="matrix(1.1909695,0,0,1.1909695,8.4630886,1.3109935)"
       class="css-n7rco1"
       fill="#632382"
       id="g15"
       style="stroke-width:0.260123">
      <path
         fill="none"
         d="m 26.499,18.3 c 1.587,2.066 6.308,4.479 19.77,4.242 0.241,-0.004 23.877,-0.317 27.11,-4.805 0.309,-0.428 0.389,-0.871 0.251,-1.351 -4.06,-5.424 -19.675,-5.711 -22.888,-5.711 -0.627,0 -0.985,0.008 -0.988,0.008 -20.928,0.628 -23.706,4.89 -23.915,5.282 l -0.053,0.429 c -0.001,0.424 0.112,1.123 0.713,1.906 z m 4.344,0.894 c 0.045,-0.765 0.934,-1.137 2.714,-1.137 0.218,0 0.443,0.006 0.669,0.02 1.233,0.073 3.293,0.366 3.226,1.51 -0.046,0.763 -0.932,1.136 -2.711,1.136 -0.219,0 -0.444,-0.007 -0.671,-0.019 -1.234,-0.073 -3.294,-0.368 -3.227,-1.51 z"
         id="path1"
         style="stroke-width:0.260123" />
      <path
         fill="none"
         d="m 46.28,23.356 c -0.608,0.012 -1.201,0.016 -1.775,0.016 -12.509,0 -17.072,-2.479 -18.681,-4.613 -0.107,-0.142 -0.197,-0.282 -0.281,-0.42 l -0.438,3.494 -0.003,0.005 c -0.069,0.594 -0.151,3.677 5.243,5.694 1.633,0.61 7.817,2.212 16.682,2.283 6.167,0.048 13.713,-0.634 17.948,-1.622 2.269,-0.533 8.353,-2.286 9.836,-4.078 l -0.64,-6.103 c -0.041,0.065 -0.082,0.136 -0.13,0.2 -3.471,4.82 -26.77,5.133 -27.761,5.144 z"
         id="path2"
         style="stroke-width:0.260123" />
      <path
         fill="none"
         d="m 47.65,30.634 c -0.212,0 -0.422,-0.002 -0.63,-0.003 -8.034,-0.062 -14.545,-1.431 -16.961,-2.333 -4.429,-1.657 -5.51,-4.064 -5.735,-5.507 -1.15,1.545 -1.632,2.97 -1.429,4.243 0.268,1.68 1.653,2.515 1.666,2.522 7.086,4.373 21.635,4.713 25.924,4.713 0.849,0 1.335,-0.014 1.339,-0.014 20.812,-1.094 23.363,-4.229 23.387,-4.261 l 0.035,-0.056 0.042,-0.027 c 0.844,-0.702 1.276,-1.479 1.282,-2.314 0.01,-1.207 -0.846,-2.274 -1.312,-2.764 -2.247,2.286 -9.764,4.073 -10.099,4.153 -4.145,0.969 -11.41,1.648 -17.509,1.648 z"
         id="path3"
         style="stroke-width:0.260123" />
      <path
         d="m 25.896,30.997 0.032,0.216 c 7.667,3.575 20.545,3.872 24.557,3.872 0.867,0 1.361,-0.015 1.373,-0.015 14.1,-0.74 19.971,-2.376 22.393,-3.499 l 0.068,-0.574 c -0.001,0 -24.212,8.343 -48.423,0 z"
         id="path4"
         style="stroke-width:0.260123" />
      <path
         d="m 25.103,21.838 c 0.005,-0.051 0.012,-0.087 0.015,-0.099 l -0.4,-0.08 0.399,0.084 -0.799,-0.169 c -0.012,0.057 -0.101,0.526 0.007,1.217 0.211,-0.283 0.442,-0.57 0.699,-0.864 z"
         id="path5"
         style="stroke-width:0.260123" />
      <path
         d="m 74.968,24.548 c 0.005,0.005 0.124,0.107 0.292,0.286 0.116,-0.117 0.219,-0.237 0.305,-0.358 L 74.9,24.001 c -0.027,0.038 -0.06,0.077 -0.092,0.114 l 0.035,0.328 z"
         id="path6"
         style="stroke-width:0.260123" />
      <g
         id="g11"
         style="stroke-width:0.260123">
        <path
           d="m 50.485,35.085 c -4.012,0 -16.891,-0.297 -24.557,-3.872 l 8.31,54.732 c 0,0 3.52,5.623 19.17,5.08 0,0 12.021,-0.727 14.562,-6.166 L 74.249,31.57 c -2.421,1.123 -8.292,2.759 -22.393,3.499 -0.01,10e-4 -0.504,0.016 -1.371,0.016 z"
           id="path7"
           style="stroke-width:0.260123" />
        <path
           d="M 75.623,24.042 74.869,16.848 74.836,16.782 C 71.6,10.358 55.576,9.859 50.742,9.859 c -0.643,0 -1.008,0.01 -1.011,0.01 -22.693,0.679 -24.606,5.646 -24.677,5.856 l -10e-4,0.012 0.779,0.236 -0.39,-0.118 0.391,0.116 v 0.002 c -0.007,0.025 -0.046,0.177 -0.047,0.422 l 0.053,-0.429 c 0.209,-0.393 2.987,-4.654 23.915,-5.282 0.003,0 0.361,-0.008 0.988,-0.008 3.213,0 18.828,0.287 22.888,5.711 -0.005,-0.021 -0.009,-0.041 -0.015,-0.06 l 0.775,-0.249 c 0.219,0.681 0.145,1.33 -0.22,1.935 l 0.64,6.103 c 0.031,-0.037 0.063,-0.076 0.092,-0.114 l 0.664,0.475 c -0.086,0.121 -0.189,0.241 -0.305,0.358 0.463,0.489 1.319,1.557 1.311,2.764 -0.006,0.835 -0.438,1.612 -1.282,2.314 l -0.042,0.027 -0.035,0.056 c -0.023,0.032 -2.572,3.167 -23.387,4.261 -0.003,0 -0.49,0.014 -1.339,0.014 -4.29,0 -18.838,-0.34 -25.924,-4.713 -0.013,-0.008 -1.398,-0.843 -1.666,-2.522 -0.203,-1.273 0.279,-2.698 1.429,-4.243 -0.108,-0.69 -0.019,-1.16 -0.007,-1.217 l 0.799,0.169 -0.399,-0.084 0.4,0.08 c -0.002,0.012 -0.009,0.048 -0.015,0.099 l 0.003,-0.005 0.438,-3.494 c -0.47,-0.784 -0.574,-1.488 -0.569,-1.968 l -0.646,5.113 c -1.762,2.037 -2.515,3.945 -2.238,5.679 0.327,2.054 1.987,3.055 2.05,3.094 0.555,0.342 1.154,0.659 1.789,0.956 l -0.032,-0.216 c 24.211,8.343 48.421,0 48.421,0 l -0.067,0.574 c 1.065,-0.494 1.465,-0.891 1.601,-1.064 1.012,-0.854 1.528,-1.83 1.537,-2.902 0.009,-1.744 -1.341,-3.163 -1.768,-3.565 z"
           id="path8"
           style="stroke-width:0.260123" />
        <path
           d="m 34.069,20.704 c 0.227,0.012 0.452,0.019 0.671,0.019 1.779,0 2.666,-0.373 2.711,-1.136 0.068,-1.144 -1.992,-1.437 -3.226,-1.51 -0.226,-0.014 -0.451,-0.02 -0.669,-0.02 -1.78,0 -2.668,0.372 -2.714,1.137 -0.066,1.142 1.994,1.437 3.227,1.51 z"
           id="path9"
           style="stroke-width:0.260123" />
        <path
           d="m 64.975,28.193 c -4.234,0.988 -11.781,1.67 -17.948,1.622 -8.865,-0.071 -15.048,-1.673 -16.682,-2.283 -5.394,-2.018 -5.312,-5.101 -5.243,-5.694 l -0.079,0.089 c -0.257,0.294 -0.488,0.581 -0.699,0.864 0.225,1.442 1.306,3.85 5.735,5.507 2.417,0.902 8.928,2.271 16.961,2.333 0.208,0.001 0.418,0.003 0.63,0.003 6.098,0 13.364,-0.679 17.511,-1.646 0.334,-0.08 7.851,-1.867 10.099,-4.153 -0.169,-0.179 -0.287,-0.281 -0.292,-0.286 l -0.122,-0.104 -0.035,-0.328 c -1.484,1.79 -7.568,3.543 -9.836,4.076 z"
           id="path10"
           style="stroke-width:0.260123" />
        <path
           d="m 44.505,23.372 c 0.574,0 1.167,-0.004 1.775,-0.016 0.991,-0.012 24.291,-0.324 27.761,-5.144 0.048,-0.064 0.089,-0.135 0.13,-0.2 l -0.097,-0.931 c -0.127,-0.241 -0.276,-0.472 -0.444,-0.695 0.138,0.479 0.058,0.923 -0.251,1.351 -3.232,4.487 -26.87,4.801 -27.11,4.805 C 32.807,22.779 28.087,20.366 26.499,18.3 25.898,17.517 25.785,16.819 25.786,16.395 l -0.243,1.944 c 0.083,0.138 0.173,0.278 0.281,0.42 1.609,2.135 6.172,4.613 18.681,4.613 z"
           id="path11"
           style="stroke-width:0.260123" />
      </g>
      <path
         d="m 25.052,15.736 c -0.007,0.021 -0.074,0.26 -0.078,0.635 l 0.08,-0.635 z"
         id="path12"
         style="stroke-width:0.260123" />
      <polygon
         points="25.442,15.854 25.833,15.973 25.833,15.971 "
         id="polygon12"
         style="stroke-width:0.260123" />
      <path
         d="M 25.833,15.973 Z"
         id="path13"
         style="stroke-width:0.260123" />
      <path
         d="m 25.543,18.339 0.243,-1.944 c 10e-4,-0.245 0.04,-0.396 0.046,-0.422 l -0.779,-0.236 -0.08,0.635 c -0.004,0.479 0.1,1.183 0.57,1.967 z"
         id="path14"
         style="stroke-width:0.260123" />
      <path
         d="m 74.171,18.013 c 0.363,-0.604 0.438,-1.254 0.22,-1.935 l -0.775,0.249 c 0.005,0.019 0.009,0.039 0.015,0.06 0.168,0.224 0.317,0.454 0.444,0.695 z"
         id="path15"
         style="stroke-width:0.260123" />
    </g>
  </g>
</svg>
