<?xml version="1.0" encoding="UTF-8" standalone="no"?>
<!-- Created with Inkscape (http://www.inkscape.org/) -->

<svg
   width="92.604156mm"
   height="8.736515mm"
   viewBox="0 0 92.604156 8.736515"
   version="1.1"
   id="svg1"
   xmlns="http://www.w3.org/2000/svg"
   xmlns:svg="http://www.w3.org/2000/svg">
  <defs
     id="defs1" />
  <g
     id="layer1"
     transform="translate(-70.767023,-83.470029)">
    <g
       id="SvgjsG2130"
       featurekey="nameFeature-0"
       transform="matrix(0.3440107,0,0,0.3440107,69.736833,79.366903)"
       fill="#ffffff"
       style="fill:#000000;fill-opacity:1">
      <path
         d="M 5.16,33.28 C 3.76,33.24 3.52,32.96 3.48,31.4 L 3.36,27.92 3,14.68 c -0.04,-1.36 0.12,-1.48 1.32,-1.6 0.8,-0.12 1.6,-0.24 2.36,-0.32 1.2,-0.08 1.48,0.24 1.4,1.56 v 0.4 c 1.04,-0.52 2.04,-1.16 3.12,-1.52 3.52,-1.2 6.4,0.76 7.12,4.8 0.28,1.56 0.32,3.08 -0.16,4.64 -0.64,2 -1.88,3.12 -3.76,3.4 -2.08,0.32 -4,0 -5.68,-1.56 -0.12,-0.12 -0.28,-0.2 -0.44,-0.32 0,2.84 -0.08,3.24 -0.04,6 v 1.6 c -0.04,1.12 -0.36,1.48 -1.32,1.52 -0.6,0.04 -1.16,0.04 -1.76,0 z m 0.8,-1.2 c 1.12,0.04 1.16,0 1.12,-1.24 L 6.96,14.44 c 0,-0.08 -0.04,-0.2 -0.08,-0.4 L 5,14.24 c -0.88,0.08 -0.92,0.12 -0.88,1.12 l 0.44,14.2 c 0.04,1.56 0.04,0.8 0.12,2.4 0.44,0.04 0.84,0.12 1.28,0.12 z m 7.76,-7.16 c 2.16,-0.24 3.2,-1.32 3.6,-3.72 0.28,-1.6 0,-3.16 -0.6,-4.64 -0.56,-1.4 -1.6,-2.12 -2.92,-2.36 -1.44,-0.24 -2.76,0.24 -4.04,1 -1.2,0.72 -2,1.68 -1.76,3.12 0.08,1.36 0.12,2.48 0.16,3.6 0.04,0.2 0.08,0.48 0.2,0.64 1.52,1.56 3.2,2.6 5.36,2.36 z m 18.282,9 c -2.56,-0.08 -2.72,-0.16 -2.84,-2.72 -0.12,-3.68 -0.2,-7.32 -0.32,-11 -0.04,-1.96 -0.2,-3.88 -0.24,-5.84 -0.04,-1.08 0.12,-1.28 1.2,-1.32 0.8,-0.04 1.64,-0.04 2.44,0 0.92,0.08 1.16,0.36 1.16,1.28 l 0.28,18.12 c 0,0.08 0.04,0.16 0.04,0.2 1.92,0 3.8,0 5.68,-0.04 0.24,0 0.52,-0.16 0.64,-0.36 0.36,-0.36 0.6,-0.8 0.88,-1.2 0.2,-0.36 0.32,-0.72 0.52,-1.08 0.52,-0.84 1.16,-1.12 1.84,-0.8 0.64,0.28 0.92,1.08 0.68,1.92 -0.2,0.8 -0.64,1.48 -1.4,1.84 -0.84,0.4 -1.76,0.8 -2.64,0.84 -2.64,0.16 -5.28,0.24 -7.92,0.16 z m -1.24,-1.24 c 1.24,0.48 1.76,0.12 1.8,-1.12 l 0.04,-0.48 c -0.12,-5.52 -0.2,-11 -0.28,-16.48 0,-0.12 -0.08,-0.24 -0.12,-0.4 h -2.44 c 0,0.76 -0.04,1.4 0,2.08 l 0.44,14 c 0.04,0.6 0.08,1.2 0.2,1.8 0,0.24 0.2,0.52 0.36,0.6 z m 10.96,-0.72 c 0.2,0.12 0.92,-0.32 1.04,-0.48 0.12,-0.16 0.16,-0.36 0.2,-0.6 0,-0.16 0,-0.32 -0.04,-0.48 -0.2,-0.44 -0.68,-0.2 -0.92,0.08 -0.24,0.32 -0.32,0.76 -0.36,1.16 -0.04,0.2 0,0.32 0.08,0.32 z m 29.882,3.28 c 0.44,0.28 0.72,0.72 0.52,1.28 -0.2,0.52 -0.64,0.84 -1.24,0.8 -0.44,-0.08 -0.92,-0.2 -1.28,-0.44 -1.12,-0.76 -1.92,-1.84 -2.32,-3.08 -0.6,-1.76 -1.44,-4.96 -1.96,-6.72 -0.08,-0.28 -0.16,-0.52 -0.2,-0.76 -1.96,0.36 -3.76,0.72 -5.6,1 -0.4,0.08 -0.56,0.28 -0.72,0.64 l -2.08,4.96 c -0.76,1.84 -0.88,1.92 -2.72,1.24 -0.4,-0.16 -0.8,-0.28 -1.16,-0.48 -0.72,-0.36 -0.84,-0.76 -0.52,-1.52 1.24,-3.04 2.52,-6.04 3.76,-9.08 1.28,-3.2 2.52,-6.4 3.76,-9.64 0.36,-0.92 0.44,-1 1.4,-0.68 0.8,0.24 1.56,0.52 2.28,0.88 0.28,0.16 0.56,0.52 0.6,0.8 0.28,3.68 1.04,7.24 1.88,10.8 0.44,1.88 1,3.76 1.48,5.64 0.28,0.96 1.24,3.12 2.28,3.44 0.64,0.2 1.24,0.56 1.84,0.92 z m -16.28,-1.76 c 2.32,-6.44 5.88,-12.28 7.56,-18.96 l -1.92,-0.76 c -2.56,6.36 -5.08,12.64 -7.6,18.96 z m 4.36,-7.24 c 1.76,-0.32 3.44,-0.68 5.12,-1 l -1.52,-7.8 c -1.2,2.92 -2.36,5.8 -3.6,8.8 z m 11.36,10.36 c 0.44,-0.04 0.44,-0.68 0.12,-0.88 -0.4,-0.32 -0.92,-0.28 -1.4,-0.32 -0.08,0 -0.4,-0.08 -0.44,0 -0.04,0.08 0.16,0.2 0.52,0.56 0.16,0.16 0.28,0.36 0.44,0.48 0.2,0.12 0.52,0.2 0.76,0.16 z m 12.122,-2.96 c -2.24,0.16 -2.52,-0.12 -2.6,-2.32 -0.12,-3.32 -0.28,-6.64 -0.36,-9.96 -0.04,-2.48 0,-4.96 0.04,-7.44 0,-1 0.28,-1.2 1.28,-1.16 0.84,0.04 1.72,0.12 2.6,0.08 0.72,0 1.16,0.36 1.48,0.96 1.36,2.24 2.68,4.52 4.08,6.76 2,3.16 4.08,6.24 6.12,9.36 0.04,0.08 0.04,0.16 0.04,0.2 l 0.24,-0.08 c -0.08,-1.48 -0.16,-3 -0.2,-4.48 -0.12,-2.96 -0.32,-5.92 -0.36,-8.84 0,-1 0.24,-1.96 0.48,-2.92 0.2,-0.72 0.72,-1.32 1.48,-1.68 0.84,-0.4 1.68,-0.16 2.12,0.56 0.56,0.88 0.44,1.88 -0.36,2.4 -0.36,0.24 -0.72,0.36 -1.08,0.56 -1,0.52 -1.6,1.28 -1.52,2.48 0.2,4.4 0.36,8.8 0.52,13.2 0.04,0.28 0.04,0.6 -0.04,0.88 -0.04,0.2 -0.2,0.44 -0.4,0.48 -0.2,0.04 -0.48,-0.04 -0.68,-0.16 -0.16,-0.08 -0.2,-0.24 -0.28,-0.4 l -6,-9.44 c -1.24,-1.96 -2.48,-3.96 -3.72,-5.96 l -0.52,-0.8 c 0,0.36 -0.04,0.56 0,0.76 0.04,4.76 0.12,9.52 0.16,14.32 0.04,2.32 -0.2,2.52 -2.52,2.64 z m 13.76,-18.6 1.44,-0.72 c 0.48,-0.24 0.56,-0.64 0.28,-1 -0.32,-0.48 -0.76,-0.28 -1,0.04 -0.36,0.44 -0.6,1 -0.92,1.52 z m -13.44,17.48 c 1.04,-0.08 1.08,-0.12 1.04,-1.12 l -0.2,-16.28 c 0,-0.36 -0.08,-0.76 -0.12,-1.16 h -2.8 c 0,0.24 -0.08,0.48 -0.08,0.68 0.12,5.48 0.2,10.92 0.32,16.36 0.04,1.68 0.12,1.68 1.84,1.52 z m 28.562,1.12 c -2.24,0.16 -2.52,-0.12 -2.6,-2.32 -0.12,-3.32 -0.28,-6.64 -0.36,-9.96 -0.04,-2.48 0,-4.96 0.04,-7.44 0,-1 0.28,-1.2 1.28,-1.16 0.84,0.04 1.72,0.12 2.6,0.08 0.72,0 1.16,0.36 1.48,0.96 1.36,2.24 2.68,4.52 4.08,6.76 2,3.16 4.08,6.24 6.12,9.36 0.04,0.08 0.04,0.16 0.04,0.2 l 0.24,-0.08 c -0.08,-1.48 -0.16,-3 -0.2,-4.48 -0.12,-2.96 -0.32,-5.92 -0.36,-8.84 0,-1 0.24,-1.96 0.48,-2.92 0.2,-0.72 0.72,-1.32 1.48,-1.68 0.84,-0.4 1.68,-0.16 2.12,0.56 0.56,0.88 0.44,1.88 -0.36,2.4 -0.36,0.24 -0.72,0.36 -1.08,0.56 -1,0.52 -1.6,1.28 -1.52,2.48 0.2,4.4 0.36,8.8 0.52,13.2 0.04,0.28 0.04,0.6 -0.04,0.88 -0.04,0.2 -0.2,0.44 -0.4,0.48 -0.2,0.04 -0.48,-0.04 -0.68,-0.16 -0.16,-0.08 -0.2,-0.24 -0.28,-0.4 l -6,-9.44 c -1.24,-1.96 -2.48,-3.96 -3.72,-5.96 l -0.52,-0.8 c 0,0.36 -0.04,0.56 0,0.76 0.04,4.76 0.12,9.52 0.16,14.32 0.04,2.32 -0.2,2.52 -2.52,2.64 z m 13.76,-18.6 1.44,-0.72 c 0.48,-0.24 0.56,-0.64 0.28,-1 -0.32,-0.48 -0.76,-0.28 -1,0.04 -0.36,0.44 -0.6,1 -0.92,1.52 z m -13.44,17.48 c 1.04,-0.08 1.08,-0.12 1.04,-1.12 l -0.2,-16.28 c 0,-0.36 -0.08,-0.76 -0.12,-1.16 h -2.8 c 0,0.24 -0.08,0.48 -0.08,0.68 0.12,5.48 0.2,10.92 0.32,16.36 0.04,1.68 0.12,1.68 1.84,1.52 z M 140.05,34 c -1.28,0.04 -1.76,-0.32 -1.8,-1.64 -0.04,-3.28 0,-8.64 -0.04,-11.92 -0.04,-2.36 -0.2,-4.24 -0.24,-6.6 0,-0.96 0.2,-1.2 1.2,-1.24 0.64,0 1.32,-0.04 1.92,0.12 1.48,0.32 2.88,0.12 4.32,0 1.68,-0.12 3.4,-0.16 5.08,-0.24 0.32,0 0.64,0.04 0.92,0.16 0.16,0.08 0.4,0.32 0.36,0.48 0,0.2 -0.24,0.4 -0.44,0.48 -0.28,0.04 -0.6,0 -0.92,0 l -7.36,0.4 c -0.04,0 -0.08,0.08 -0.16,0.12 0.12,4.2 0.36,7.96 0.52,12.32 l 3,-0.24 c 0.56,-0.04 1.12,-0.12 1.72,-0.16 0.4,-0.04 0.84,-0.08 0.92,0.44 0.04,0.52 -0.4,0.6 -0.8,0.64 l -4.32,0.36 c -0.12,0 -0.24,0.04 -0.44,0.08 0.04,0.96 0.04,3.96 0.08,4.96 h 3.88 c 1.04,0 2.08,0 3.12,0.04 0.36,0 0.72,0.04 0.72,0.48 0,0.44 -0.36,0.56 -0.72,0.56 l -1.24,0.04 c -3.12,0.12 -6.2,0.2 -9.28,0.36 z m -0.68,-1.16 3.08,-0.4 c -0.08,-1.36 -0.08,-4.6 -0.12,-5.8 -0.16,-3.6 -0.32,-6.72 -0.44,-10.36 -0.04,-0.6 -0.08,-1.24 -0.16,-1.84 -0.04,-0.24 -0.24,-0.56 -0.36,-0.6 -0.72,-0.08 -1.44,-0.12 -2.32,-0.16 0.08,3.88 0.2,11.24 0.32,19.16 z m 38.202,4.4 c -0.88,-0.08 -1.68,-0.32 -2.44,-0.72 -1.8,-1 -3.92,-3.52 -5,-5.4 -0.64,-1.12 -1.2,-2.28 -1.84,-3.36 -0.28,-0.56 -0.64,-1.08 -1,-1.6 l -0.16,0.04 c -0.04,0.32 -0.08,0.6 -0.08,0.88 -0.08,2.36 -0.16,1.6 -0.2,3.96 -0.04,0.4 -0.04,0.84 -0.08,1.24 -0.08,0.72 -0.4,1.12 -1.04,1.16 -0.84,0.08 -1.72,0.12 -2.56,0.04 -0.8,-0.04 -1.16,-0.48 -1.2,-1.4 -0.24,-5.24 -0.56,-7.4 -0.44,-12.68 0.04,-1.68 -0.08,-3.32 -0.08,-5 -0.04,-1 0,-1.04 0.92,-1.16 0.96,-0.16 1.96,-0.32 2.92,-0.44 1.12,-0.12 1.56,0.32 1.6,1.56 v 1.32 l 0.6,-0.56 c 1.4,-1.48 3.04,-2.36 4.92,-2.64 2.96,-0.48 5.36,1.52 6,4.92 0.88,4.52 -1.72,8.72 -5.92,9.56 -0.52,0.12 -1,0.2 -1.52,0.2 -0.52,0 -1,-0.08 -1.64,-0.12 0.76,1.4 1.48,2.8 2.32,4.12 0.44,0.72 0.92,1.4 1.44,2.04 0.84,0.96 1.84,1.8 3,2.32 0.44,0.2 0.96,0.36 1.48,0.4 0.16,0.04 0.32,0 0.48,0 0.04,-0.08 0.12,-0.12 0.16,-0.2 l 0.72,-1.12 c 0.24,-0.36 0.48,-0.72 0.8,-1.04 0.32,-0.32 0.76,-0.44 1.24,-0.4 0.96,0.08 1.44,1.04 0.96,1.92 -0.48,0.88 -1.36,1.48 -2.32,1.84 -0.68,0.28 -1.32,0.36 -2.04,0.32 z m -5.08,-11.6 c 3.2,-0.76 5.2,-3.76 4.88,-7.24 -0.32,-3.56 -2.68,-5.36 -5.8,-4.4 -1.36,0.4 -2.48,1.24 -3.52,2.24 -0.72,0.68 -1.12,1.48 -1.08,2.56 v 2.12 c 0.08,0.88 0.08,1.72 0.16,2.6 0.04,0.24 0.08,0.56 0.24,0.68 0.52,0.48 1.04,0.96 1.64,1.28 1.12,0.52 2.32,0.44 3.48,0.16 z m -9.28,6.52 h 2.36 c 0.4,-7.08 0.36,-10.96 0.12,-18.04 l -3.12,0.44 c 0.16,6.96 0.04,10.72 0.64,17.6 z m 16.24,3.72 c 0.84,-0.28 1.36,-0.76 1.72,-1.52 -0.76,-0.28 -1.2,0.08 -1.72,1.52 z m 32.324,-1.76 c -1.2,-0.04 -1.44,-0.24 -1.48,-1.4 l -0.52,-13.64 -0.24,-4.52 c -0.04,-0.88 0.04,-1 0.88,-1.08 1.04,-0.04 2.12,-0.08 3.2,-0.16 0.72,-0.04 1.44,-0.16 2.16,-0.2 1.88,-0.08 3.72,-0.04 5.48,0.72 1.68,0.68 2.76,1.84 3.04,3.68 0.52,3.32 -0.76,5.96 -3.72,7.56 l -1.4,0.68 c 0.92,0.32 1.88,0.6 2.76,1 0.96,0.48 1.6,1.32 1.8,2.44 0.32,1.52 -0.24,2.88 -1.72,3.44 -1.24,0.48 -2.6,0.72 -3.92,0.96 -2.08,0.36 -4.2,0.6 -6.32,0.52 z m 3.48,-8.6 c 2,-0.2 4.16,-0.88 5.52,-1.88 2.32,-1.6 2.96,-3.88 2.32,-6.56 -0.24,-0.76 -0.72,-1.4 -1.4,-1.8 -2.24,-1.28 -4.64,-1.24 -7.12,-0.92 z m -3.8,7.4 h 3.12 v -0.48 c -0.16,-1.6 -0.36,-3.2 -0.44,-4.76 -0.12,-2.64 -0.16,-5.24 -0.28,-7.88 -0.08,-1.56 -0.24,-3.12 -0.4,-4.68 0,-0.24 -0.24,-0.6 -0.4,-0.64 -0.76,-0.04 -1.56,0 -2.4,0 z m 4.24,-0.08 4.08,-0.6 c 0.64,-0.12 1.24,-0.32 1.8,-0.56 0.92,-0.4 1.2,-1.04 1.12,-2.04 -0.16,-1.44 -1.2,-2.08 -2.44,-2.4 -1.6,-0.44 -3.24,-0.24 -4.88,-0.04 -0.04,0 -0.08,0.08 -0.24,0.2 z M 236.578,34 c -1.28,0.04 -1.76,-0.32 -1.8,-1.64 -0.04,-3.28 0,-8.64 -0.04,-11.92 -0.04,-2.36 -0.2,-4.24 -0.24,-6.6 0,-0.96 0.2,-1.2 1.2,-1.24 0.64,0 1.32,-0.04 1.92,0.12 1.48,0.32 2.88,0.12 4.32,0 1.68,-0.12 3.4,-0.16 5.08,-0.24 0.32,0 0.64,0.04 0.92,0.16 0.16,0.08 0.4,0.32 0.36,0.48 0,0.2 -0.24,0.4 -0.44,0.48 -0.28,0.04 -0.6,0 -0.92,0 l -7.36,0.4 c -0.04,0 -0.08,0.08 -0.16,0.12 0.12,4.2 0.36,7.96 0.52,12.32 l 3,-0.24 c 0.56,-0.04 1.12,-0.12 1.72,-0.16 0.4,-0.04 0.84,-0.08 0.92,0.44 0.04,0.52 -0.4,0.6 -0.8,0.64 l -4.32,0.36 c -0.12,0 -0.24,0.04 -0.44,0.08 0.04,0.96 0.04,3.96 0.08,4.96 h 3.88 c 1.04,0 2.08,0 3.12,0.04 0.36,0 0.72,0.04 0.72,0.48 0,0.44 -0.36,0.56 -0.72,0.56 l -1.24,0.04 c -3.12,0.12 -6.2,0.2 -9.28,0.36 z m -0.68,-1.16 3.08,-0.4 c -0.08,-1.36 -0.08,-4.6 -0.12,-5.8 -0.16,-3.6 -0.32,-6.72 -0.44,-10.36 -0.04,-0.6 -0.08,-1.24 -0.16,-1.84 -0.04,-0.24 -0.24,-0.56 -0.36,-0.6 -0.72,-0.08 -1.44,-0.12 -2.32,-0.16 0.08,3.88 0.2,11.24 0.32,19.16 z M 260.46,34 c -1.28,0.04 -1.76,-0.32 -1.8,-1.64 -0.04,-3.28 0,-8.64 -0.04,-11.92 -0.04,-2.36 -0.2,-4.24 -0.24,-6.6 0,-0.96 0.2,-1.2 1.2,-1.24 0.64,0 1.32,-0.04 1.92,0.12 1.48,0.32 2.88,0.12 4.32,0 1.68,-0.12 3.4,-0.16 5.08,-0.24 0.32,0 0.64,0.04 0.92,0.16 0.16,0.08 0.4,0.32 0.36,0.48 0,0.2 -0.24,0.4 -0.44,0.48 -0.28,0.04 -0.6,0 -0.92,0 l -7.36,0.4 c -0.04,0 -0.08,0.08 -0.16,0.12 0.12,4.2 0.36,7.96 0.52,12.32 l 3,-0.24 c 0.56,-0.04 1.12,-0.12 1.72,-0.16 0.4,-0.04 0.84,-0.08 0.92,0.44 0.04,0.52 -0.4,0.6 -0.8,0.64 l -4.32,0.36 c -0.12,0 -0.24,0.04 -0.44,0.08 0.04,0.96 0.04,3.96 0.08,4.96 h 3.88 c 1.04,0 2.08,0 3.12,0.04 0.36,0 0.72,0.04 0.72,0.48 0,0.44 -0.36,0.56 -0.72,0.56 l -1.24,0.04 c -3.12,0.12 -6.2,0.2 -9.28,0.36 z m -0.68,-1.16 3.08,-0.4 c -0.08,-1.36 -0.08,-4.6 -0.12,-5.8 -0.16,-3.6 -0.32,-6.72 -0.44,-10.36 -0.04,-0.6 -0.08,-1.24 -0.16,-1.84 -0.04,-0.24 -0.24,-0.56 -0.36,-0.6 -0.72,-0.08 -1.44,-0.12 -2.32,-0.16 0.08,3.88 0.2,11.24 0.32,19.16 z"
         id="path1"
         style="fill:#000000;fill-opacity:1" />
    </g>
  </g>
</svg>
