<?xml version="1.0" encoding="UTF-8" standalone="no"?>
<!-- Created with Inkscape (http://www.inkscape.org/) -->

<svg
   width="693.02728"
   height="75.718674"
   viewBox="0 0 183.36346 20.0339"
   version="1.1"
   id="svg1"
   xmlns="http://www.w3.org/2000/svg"
   xmlns:svg="http://www.w3.org/2000/svg">
  <defs
     id="defs1" />
  <g
     id="layer2"
     transform="translate(-57.500842,53.866282)">
    <g
       id="SvgjsG1013"
       featurekey="vMvB0T-0"
       transform="matrix(1.402934,0,0,1.402934,56.490732,-62.311943)"
       fill="#000000"
       style="stroke-width:0.411506">
      <path
         d="m 8.66,11.78 v -0.24 q 0,-2.96 -2.2,-2.96 -1.26,0 -1.82,1.15 -0.56,1.15 -0.56,3.39 0,2.22 0.7,3.3 0.7,1.08 2.04,1.08 0.7,0 1.55,-0.33 0.85,-0.33 1.85,-1.05 0.5,0.34 0.93,0.93 0.43,0.59 0.53,1.13 -0.46,0.44 -1.07,0.83 Q 10,19.4 9.29,19.68 8.58,19.96 7.81,20.13 7.04,20.3 6.26,20.3 4.72,20.3 3.66,19.71 2.6,19.12 1.95,18.14 1.3,17.16 1.01,15.88 0.72,14.6 0.72,13.22 0.72,11.42 1.17,10.07 1.62,8.72 2.39,7.82 3.16,6.92 4.2,6.47 5.24,6.02 6.42,6.02 q 1.2,0 2.18,0.32 0.98,0.32 1.67,0.88 0.69,0.56 1.06,1.32 0.37,0.76 0.37,1.64 0,1.78 -1.82,1.78 -0.54,0 -1.22,-0.18 z m 7.9,4.5 q 0.54,1.56 2.18,1.56 0.82,0 1.33,-0.41 0.51,-0.41 0.8,-1.04 0.29,-0.63 0.39,-1.41 0.1,-0.78 0.1,-1.54 0,-0.7 -0.05,-1.56 Q 21.26,11.02 21.02,10.27 20.78,9.52 20.26,9.01 19.74,8.5 18.74,8.5 q -0.96,0 -1.47,0.49 -0.51,0.49 -0.76,1.21 -0.25,0.72 -0.31,1.53 -0.06,0.81 -0.06,1.43 0,0.92 0.09,1.64 0.09,0.72 0.33,1.48 z m -1.62,2.76 q -2.14,-1.78 -2.14,-5.86 0,-1.76 0.41,-3.09 0.41,-1.33 1.18,-2.23 0.77,-0.9 1.87,-1.36 1.1,-0.46 2.48,-0.46 1.38,0 2.49,0.46 1.11,0.46 1.88,1.37 0.77,0.91 1.18,2.24 0.41,1.33 0.41,3.07 0,1.74 -0.41,3.07 -0.41,1.33 -1.18,2.23 -0.77,0.9 -1.88,1.36 -1.11,0.46 -2.49,0.46 -2.28,0 -3.8,-1.26 z m 15.18,-9.98 0.02,1.56 v 1.26 h 4.28 q 0.16,0.6 0.16,1.31 0,0.71 -0.16,1.31 H 30.14 V 20 q -0.64,0.12 -1.6,0.12 -0.96,0 -1.6,-0.12 V 6.46 l 0.14,-0.12 h 8.56 q 0.12,0.5 0.12,1.25 0,0.75 -0.41,1.11 -0.41,0.36 -1.29,0.36 z m 10.7,0 0.02,1.56 v 1.26 h 4.28 q 0.16,0.6 0.16,1.31 0,0.71 -0.16,1.31 H 40.84 V 20 q -0.64,0.12 -1.6,0.12 -0.96,0 -1.6,-0.12 V 6.46 l 0.14,-0.12 h 8.56 q 0.12,0.5 0.12,1.25 0,0.75 -0.41,1.11 -0.41,0.36 -1.29,0.36 z m 10.66,6.9 -0.02,1.44 v 0.02 q 0.92,-0.04 1.48,-0.04 h 4.64 q 0,0.74 -0.06,1.14 -0.24,1.54 -2.04,1.54 h -5.32 q -0.86,0 -1.35,-0.5 -0.49,-0.5 -0.49,-1.36 V 6.48 l 0.14,-0.14 h 8.62 q 0.12,0.58 0.12,1.26 0,0.68 -0.28,1.42 h -5.46 l 0.02,1.44 v 1.4 Q 52,11.84 52.84,11.84 h 3.06 q 0.18,0.56 0.18,1.28 0,0.72 -0.18,1.32 h -4.42 z m 11.46,0 -0.02,1.44 v 0.02 q 0.92,-0.04 1.48,-0.04 h 4.64 q 0,0.74 -0.06,1.14 -0.24,1.54 -2.04,1.54 h -5.32 q -0.86,0 -1.35,-0.5 -0.49,-0.5 -0.49,-1.36 V 6.48 l 0.14,-0.14 h 8.62 q 0.12,0.58 0.12,1.26 0,0.68 -0.28,1.42 h -5.46 l 0.02,1.44 v 1.4 q 0.52,-0.02 1.36,-0.02 h 3.06 q 0.18,0.56 0.18,1.28 0,0.72 -0.18,1.32 h -4.42 z m 12.3,4 1.06,-13.6 q 0.88,-0.16 2.08,-0.16 1.2,0 2.1,0.16 l 1.18,4.9 q 0.7,3.32 0.74,3.62 h 0.14 q 0.08,-0.5 0.74,-3.62 l 1.2,-4.9 q 0.88,-0.16 2.08,-0.16 1.2,0 2.1,0.16 l 1.06,13.6 q -0.62,0.16 -1.53,0.16 -0.91,0 -1.49,-0.1 L 86.38,14.46 Q 86.24,11.14 86.22,9.84 H 86.1 l -1.98,8.14 q -0.72,0.12 -1.65,0.12 -0.93,0 -1.65,-0.12 L 78.86,9.84 h -0.14 q 0,1.78 -0.16,4.62 l -0.3,5.56 q -0.58,0.1 -1.49,0.1 -0.91,0 -1.53,-0.16 z m 20.04,-3.68 q 0.54,1.56 2.18,1.56 0.82,0 1.33,-0.41 0.51,-0.41 0.8,-1.04 0.29,-0.63 0.39,-1.41 0.1,-0.78 0.1,-1.54 0,-0.7 -0.05,-1.56 Q 99.98,11.02 99.74,10.27 99.5,9.52 98.98,9.01 98.46,8.5 97.46,8.5 q -0.96,0 -1.47,0.49 -0.51,0.49 -0.76,1.21 -0.25,0.72 -0.31,1.53 -0.06,0.81 -0.06,1.43 0,0.92 0.09,1.64 0.09,0.72 0.33,1.48 z m -1.62,2.76 q -2.14,-1.78 -2.14,-5.86 0,-1.76 0.41,-3.09 0.41,-1.33 1.18,-2.23 0.77,-0.9 1.87,-1.36 1.1,-0.46 2.48,-0.46 1.38,0 2.49,0.46 1.11,0.46 1.88,1.37 0.77,0.91 1.18,2.24 0.41,1.33 0.41,3.07 0,1.74 -0.41,3.07 -0.41,1.33 -1.18,2.23 -0.77,0.9 -1.88,1.36 -1.11,0.46 -2.49,0.46 -2.28,0 -3.8,-1.26 z m 11.58,0.92 1.06,-13.6 q 0.88,-0.16 2.08,-0.16 1.2,0 2.1,0.16 l 1.18,4.9 q 0.7,3.32 0.74,3.62 h 0.14 q 0.08,-0.5 0.74,-3.62 l 1.2,-4.9 q 0.88,-0.16 2.08,-0.16 1.2,0 2.1,0.16 l 1.06,13.6 q -0.62,0.16 -1.53,0.16 -0.91,0 -1.49,-0.1 l -0.32,-5.56 q -0.14,-3.32 -0.16,-4.62 h -0.12 l -1.98,8.14 q -0.72,0.12 -1.65,0.12 -0.93,0 -1.65,-0.12 l -1.96,-8.14 h -0.14 q 0,1.78 -0.16,4.62 l -0.3,5.56 q -0.58,0.1 -1.49,0.1 -0.91,0 -1.53,-0.16 z m 15.86,-1.14 q 0.06,-0.66 0.41,-1.32 0.35,-0.66 0.83,-1.08 2.14,1.3 4.06,1.3 0.84,0 1.23,-0.38 0.39,-0.38 0.39,-0.94 0,-0.94 -1.26,-1.48 l -2.36,-1 q -1.38,-0.62 -2.12,-1.49 -0.74,-0.87 -0.74,-2.21 0,-0.92 0.37,-1.68 0.37,-0.76 1.04,-1.32 0.67,-0.56 1.59,-0.87 0.92,-0.31 2.04,-0.31 2.24,0 4.52,1.14 -0.1,1.54 -1.08,2.4 -2.04,-0.98 -3.6,-0.98 -0.8,0 -1.2,0.36 -0.4,0.36 -0.4,0.82 0,0.78 1.18,1.26 l 2.4,1.02 q 1.52,0.64 2.27,1.64 0.75,1 0.75,2.32 0,0.94 -0.34,1.72 -0.34,0.78 -1.01,1.35 -0.67,0.57 -1.67,0.89 -1,0.32 -2.34,0.32 -2.6,0 -4.96,-1.48 z"
         id="path16"
         style="stroke-width:0.411506" />
    </g>
  </g>
</svg>
