<?xml version="1.0" standalone="no"?>
<!DOCTYPE svg PUBLIC "-//W3C//DTD SVG 20010904//EN"
 "http://www.w3.org/TR/2001/REC-SVG-20010904/DTD/svg10.dtd">
<svg version="1.0" xmlns="http://www.w3.org/2000/svg"
 width="1464.000000pt" height="1464.000000pt" viewBox="0 0 1464.000000 1464.000000"
 preserveAspectRatio="xMidYMid meet">
<metadata>
Created by potrace 1.14, written by Peter Selinger 2001-2017
</metadata>
<g transform="translate(0.000000,1464.000000) scale(0.100000,-0.100000)"
fill="#000000" stroke="none">
<path d="M7168 14635 c-2 -1 -75 -6 -163 -9 -335 -15 -411 -19 -590 -31 -38
-3 -101 -8 -140 -10 -38 -3 -92 -7 -120 -10 -27 -2 -84 -7 -125 -10 -41 -4
-93 -8 -115 -10 -22 -3 -67 -7 -100 -9 -33 -3 -76 -7 -95 -10 -43 -6 -128 -16
-195 -22 -27 -2 -66 -7 -85 -10 -19 -3 -53 -7 -75 -10 -22 -3 -56 -7 -75 -10
-19 -3 -51 -7 -70 -9 -19 -2 -48 -6 -65 -10 -16 -3 -46 -8 -65 -9 -19 -2 -35
-4 -35 -6 0 -1 -13 -3 -30 -5 -44 -5 -106 -14 -135 -20 -50 -10 -76 -15 -105
-20 -16 -3 -41 -7 -55 -10 -14 -2 -45 -7 -70 -11 -24 -3 -48 -8 -52 -11 -5 -2
-21 -7 -36 -9 -15 -3 -61 -12 -102 -21 -41 -8 -83 -17 -92 -18 -54 -11 -316
-81 -416 -111 -65 -20 -121 -37 -127 -38 -5 -1 -16 -5 -22 -9 -7 -5 -23 -10
-35 -13 -13 -3 -27 -6 -33 -8 -5 -1 -21 -8 -35 -16 -14 -7 -27 -13 -30 -13 -8
1 -32 -8 -67 -23 -17 -8 -38 -14 -47 -14 -9 0 -16 -5 -16 -11 0 -6 -7 -9 -15
-5 -8 3 -15 1 -15 -4 0 -6 -6 -10 -13 -10 -12 0 -203 -93 -262 -128 -140 -82
-240 -161 -306 -241 -64 -79 -69 -93 -84 -261 -6 -69 -9 -82 -18 -97 -5 -8 -3
-13 3 -13 6 0 8 -4 5 -10 -6 -10 -12 -42 -20 -115 -4 -41 -13 -109 -21 -160
-2 -17 -7 -57 -10 -90 -6 -58 -11 -90 -14 -90 0 0 -3 -25 -6 -55 -2 -30 -6
-65 -8 -76 -3 -12 -8 -48 -12 -80 -3 -33 -8 -66 -10 -74 -1 -8 -3 -18 -3 -21
-1 -3 -11 -16 -23 -29 -26 -27 -64 -74 -93 -114 -11 -16 -26 -34 -32 -41 -7
-8 -13 -16 -13 -20 0 -3 -11 -21 -25 -39 -14 -18 -25 -36 -25 -39 0 -3 -11
-23 -26 -44 -22 -33 -45 -79 -97 -194 -59 -130 -91 -364 -67 -495 13 -75 43
-169 70 -224 10 -19 17 -37 16 -40 0 -3 9 -16 21 -30 13 -13 23 -27 23 -32 0
-12 46 -64 115 -131 79 -77 82 -79 140 -113 28 -15 52 -31 55 -34 3 -3 19 -13
35 -21 17 -8 59 -30 95 -49 36 -18 70 -35 76 -36 14 -2 64 -35 64 -41 0 -2 -5
-1 -12 3 -8 5 -9 0 -5 -17 4 -13 14 -71 22 -129 9 -58 18 -116 21 -130 3 -14
6 -38 8 -55 6 -51 16 -119 22 -147 3 -15 7 -39 9 -55 2 -15 6 -42 9 -59 3 -17
8 -46 10 -65 3 -19 8 -52 11 -74 3 -22 12 -80 20 -130 20 -131 27 -177 31
-205 1 -14 5 -38 9 -54 3 -15 8 -47 10 -70 6 -50 18 -128 29 -191 3 -16 8 -48
10 -70 3 -22 7 -51 10 -65 2 -14 7 -45 11 -70 6 -45 10 -72 20 -132 3 -18 7
-46 9 -63 4 -31 14 -96 20 -131 2 -11 8 -47 12 -79 8 -63 10 -73 14 -77 1 -2
3 -19 5 -38 2 -19 5 -46 8 -60 2 -14 10 -68 16 -120 7 -52 15 -102 18 -110 3
-8 7 -26 8 -40 2 -14 5 -43 9 -65 3 -22 8 -58 11 -80 3 -23 8 -52 10 -65 3
-14 7 -45 10 -70 3 -25 8 -56 11 -70 3 -14 7 -37 9 -51 6 -41 46 -312 51 -339
5 -28 11 -71 19 -127 3 -21 10 -67 16 -103 6 -36 13 -81 15 -100 2 -19 9 -60
14 -90 5 -30 12 -73 15 -95 3 -22 8 -53 11 -69 3 -16 6 -48 8 -70 2 -23 6 -48
9 -56 5 -14 11 -50 21 -135 2 -16 5 -30 5 -30 1 0 4 -16 5 -35 2 -19 6 -48 9
-65 3 -16 8 -50 12 -75 6 -43 10 -68 21 -135 3 -16 7 -46 9 -65 2 -19 5 -35 6
-35 0 0 3 -13 5 -30 5 -42 12 -96 18 -125 4 -23 19 -118 32 -210 3 -19 9 -60
14 -90 5 -30 12 -73 15 -95 2 -22 7 -51 9 -65 4 -23 18 -117 31 -200 2 -19 7
-48 10 -65 12 -69 15 -92 20 -136 3 -26 8 -58 11 -70 5 -30 24 -151 30 -204 3
-22 7 -47 9 -55 3 -8 7 -35 10 -60 3 -25 7 -55 9 -67 3 -11 8 -43 12 -70 3
-26 8 -55 10 -65 8 -46 18 -116 20 -138 1 -14 2 -25 3 -25 2 0 6 -22 16 -100
3 -22 8 -53 11 -70 3 -16 6 -47 7 -67 1 -21 4 -38 7 -38 3 0 7 -15 8 -33 2
-17 5 -45 9 -62 3 -16 6 -47 7 -67 0 -21 4 -38 8 -38 4 0 7 -8 7 -17 0 -22 8
-86 15 -133 4 -19 8 -53 11 -75 3 -22 7 -51 11 -65 3 -14 7 -43 10 -65 2 -22
7 -53 10 -70 12 -65 23 -141 29 -194 3 -24 7 -51 9 -60 3 -9 8 -38 12 -66 3
-27 7 -57 9 -65 1 -8 6 -40 10 -70 4 -30 9 -64 11 -75 3 -11 7 -36 9 -55 18
-121 33 -215 39 -250 3 -14 8 -47 11 -75 3 -27 8 -57 10 -65 2 -8 6 -35 9 -60
4 -25 8 -56 10 -70 3 -14 10 -59 16 -100 6 -41 14 -86 17 -100 2 -14 5 -32 5
-40 0 -8 4 -35 8 -60 5 -25 11 -68 14 -95 3 -28 8 -61 11 -75 3 -13 7 -42 10
-65 3 -22 8 -51 10 -65 12 -66 17 -98 20 -135 1 -22 5 -47 8 -55 3 -8 6 -22 7
-30 4 -49 8 -77 13 -95 3 -11 9 -42 12 -70 4 -27 9 -63 11 -80 3 -16 7 -43 9
-60 2 -16 7 -46 10 -65 3 -19 8 -51 10 -70 3 -19 7 -48 10 -65 6 -41 12 -82
20 -135 3 -25 9 -56 12 -70 6 -26 8 -41 11 -76 2 -23 142 -172 207 -220 22
-16 45 -34 50 -40 15 -16 221 -149 240 -154 6 -2 26 -13 45 -25 71 -44 342
-163 445 -194 22 -7 49 -16 60 -21 45 -19 118 -39 125 -35 5 3 10 1 12 -3 3
-9 145 -48 298 -83 130 -30 153 -34 210 -43 19 -3 46 -8 60 -11 14 -3 45 -8
70 -11 24 -3 48 -11 52 -17 6 -9 8 -9 8 -1 0 8 11 9 38 4 38 -9 89 -16 177
-25 28 -3 68 -8 90 -10 22 -3 69 -7 105 -10 36 -3 92 -7 125 -10 335 -28 1071
-28 1236 0 13 2 51 6 84 10 57 5 82 9 150 20 17 3 48 7 70 10 22 3 54 8 70 12
17 4 41 7 55 8 14 1 36 5 50 9 14 3 41 8 60 10 19 3 35 6 35 7 0 1 9 3 20 5
11 1 31 5 45 8 75 17 136 29 148 29 6 0 12 3 12 7 0 3 8 6 18 6 22 1 83 14 92
19 4 2 22 7 40 10 18 3 38 9 44 12 6 4 17 8 26 9 45 7 205 57 208 66 2 4 7 6
11 3 18 -11 466 169 518 208 7 5 39 23 70 39 53 27 191 114 203 128 3 3 23 19
45 35 94 70 222 200 263 268 9 15 20 27 24 27 4 0 8 4 8 10 0 5 14 32 30 60
30 51 33 62 46 175 3 33 8 71 9 85 2 14 6 48 9 75 3 28 8 70 11 95 3 25 8 66
10 92 3 27 7 59 9 73 3 14 8 56 11 93 4 37 9 78 11 92 2 14 7 48 10 75 2 28 6
64 8 80 7 53 41 339 51 430 3 22 7 56 10 75 5 38 16 130 20 170 1 14 6 52 10
85 3 33 8 76 10 95 2 19 6 49 8 65 3 17 8 61 12 98 3 37 8 76 10 85 1 9 6 44
9 77 4 33 9 71 11 85 2 14 7 54 10 90 3 36 8 79 10 95 3 17 7 53 10 80 3 28 8
70 11 95 3 25 7 61 9 80 1 19 4 35 5 35 3 0 7 34 14 120 3 39 8 81 11 95 3 14
8 50 11 80 5 57 11 113 18 165 2 17 7 57 11 90 4 33 9 74 11 90 2 17 6 55 9
85 2 30 7 71 10 90 3 19 8 55 11 80 2 25 7 63 10 85 2 22 7 72 10 110 3 39 8
71 12 72 4 2 7 18 6 37 -1 18 3 60 7 92 5 33 11 82 14 109 8 77 16 146 21 169
2 12 6 50 9 86 3 36 7 74 9 85 2 11 7 49 11 85 4 36 9 73 11 84 2 10 6 47 9
81 2 35 7 78 10 96 3 19 7 52 10 74 15 128 19 164 19 197 1 21 3 38 6 38 3 0
6 8 6 18 1 25 14 143 18 172 3 14 7 52 11 85 3 33 7 71 10 85 2 14 7 52 10 85
3 33 8 74 11 90 9 68 16 133 17 177 1 27 5 48 9 48 3 0 6 15 6 33 0 17 1 34 2
37 1 3 3 28 6 55 2 28 6 64 10 80 3 17 7 46 8 65 5 56 17 163 22 191 6 38 13
95 19 159 3 30 8 73 11 95 3 22 7 56 9 75 2 19 6 64 10 100 4 36 8 71 8 78 0
6 3 12 6 12 3 0 7 21 7 48 2 44 7 104 20 197 3 22 7 60 10 85 3 25 7 61 9 80
3 19 7 58 9 85 3 28 8 70 12 95 7 54 10 77 19 155 3 33 8 71 10 85 2 14 6 50
9 80 4 30 8 69 10 85 2 17 7 56 10 87 4 32 11 92 17 135 5 43 11 96 13 117 5
42 14 115 22 181 3 22 7 60 9 85 2 25 4 45 5 45 2 0 7 39 14 110 4 33 8 74 10
90 2 17 7 59 11 95 4 36 8 67 10 70 2 3 6 41 9 85 4 44 9 87 11 95 4 16 16
118 30 260 2 25 7 65 11 90 4 25 8 62 8 82 1 21 3 38 6 38 3 0 7 24 8 53 2 28
5 63 7 77 2 14 3 35 4 48 1 12 7 22 16 22 8 0 15 4 15 8 0 5 6 9 14 9 8 0 53
24 101 54 79 50 245 202 302 277 30 40 78 137 100 202 24 74 24 251 -1 335
-20 67 -77 198 -88 203 -5 2 -8 10 -8 18 0 8 -4 14 -10 14 -5 0 -10 5 -10 10
0 19 -61 98 -137 178 -37 39 -43 51 -47 101 -5 53 -10 101 -21 196 -2 22 -7
67 -10 100 -3 33 -10 96 -15 140 -5 44 -12 108 -15 142 -3 34 -7 70 -9 80 -2
10 -7 56 -11 103 -3 47 -8 96 -10 110 -2 14 -6 50 -10 80 -3 30 -7 69 -9 85
-3 17 -7 66 -11 110 -6 74 -44 183 -67 193 -5 2 -8 10 -8 18 0 8 -7 14 -17 14
-9 0 -13 3 -10 6 18 18 -132 181 -263 286 -53 43 -190 137 -220 151 -8 4 -24
13 -35 20 -21 14 -167 90 -175 92 -6 2 -63 27 -127 56 -62 28 -203 82 -298
114 -65 21 -213 66 -232 70 -10 2 -18 4 -18 5 0 1 -7 3 -15 5 -8 2 -42 11 -75
20 -33 9 -67 18 -75 20 -8 2 -37 9 -65 15 -27 6 -61 14 -75 17 -44 9 -55 11
-55 13 0 3 -41 11 -62 12 -13 0 -23 3 -23 7 0 3 -15 7 -32 8 -18 1 -44 4 -58
8 -14 3 -41 9 -60 11 -19 3 -50 9 -69 14 -19 5 -38 7 -43 4 -4 -3 -8 -1 -8 3
0 5 -14 8 -30 7 -17 -1 -32 1 -35 5 -2 4 -21 9 -42 10 -35 1 -78 7 -78 11 0 1
-17 3 -38 5 -21 2 -55 6 -75 10 -20 4 -53 9 -72 11 -19 2 -51 5 -70 8 -19 3
-60 8 -90 11 -30 3 -75 8 -100 11 -94 12 -300 31 -415 39 -27 2 -84 6 -125 9
-89 7 -220 15 -350 22 -110 6 -987 14 -992 9z m700 -148 c100 -2 185 -7 188
-10 3 -3 16 -2 29 3 13 5 26 6 29 2 4 -3 37 -7 74 -9 108 -4 257 -12 257 -14
0 -1 29 -3 65 -4 36 -2 65 -4 65 -5 0 -1 27 -3 60 -5 33 -2 85 -6 115 -9 30
-3 82 -7 115 -10 33 -3 83 -8 110 -11 28 -4 68 -8 90 -10 22 -1 40 -4 40 -5 0
-1 16 -4 35 -5 20 -2 53 -6 75 -9 22 -2 65 -7 95 -11 30 -3 62 -9 70 -12 8 -3
33 -7 55 -8 23 -2 68 -8 100 -14 33 -6 76 -13 95 -15 34 -5 118 -20 170 -32
14 -3 34 -7 45 -8 39 -7 91 -17 135 -27 25 -6 55 -13 68 -15 13 -3 60 -14 105
-25 45 -11 93 -23 107 -26 14 -2 32 -7 40 -10 8 -3 24 -8 35 -10 11 -2 31 -8
45 -13 14 -5 34 -11 45 -13 11 -1 26 -6 33 -10 6 -5 17 -5 22 -2 6 3 10 2 10
-3 0 -6 17 -13 38 -18 43 -9 42 -8 64 -18 9 -4 22 -8 30 -10 7 -1 18 -4 23 -7
6 -4 28 -12 50 -19 22 -7 46 -17 53 -23 6 -5 12 -6 12 -3 0 4 10 1 23 -6 12
-6 29 -13 37 -14 8 -2 23 -7 35 -13 11 -5 65 -30 120 -56 55 -25 107 -49 115
-54 83 -44 211 -121 220 -131 3 -3 22 -16 42 -30 21 -14 38 -28 38 -32 0 -5 5
-8 10 -8 27 0 238 -215 241 -245 4 -48 4 -65 -2 -65 -4 0 -5 -9 -2 -20 14 -54
-65 -177 -162 -252 -27 -21 -54 -42 -60 -46 -5 -4 -32 -21 -60 -37 -64 -37
-109 -59 -250 -121 -42 -18 -304 -105 -334 -111 -14 -2 -28 -6 -33 -9 -5 -3
-20 -7 -33 -10 -14 -2 -66 -15 -115 -28 -50 -14 -90 -23 -90 -21 0 3 -12 0
-26 -6 -15 -5 -42 -12 -62 -15 -19 -3 -44 -8 -56 -11 -48 -11 -163 -35 -191
-39 -16 -3 -53 -9 -81 -15 -28 -5 -64 -12 -80 -15 -16 -2 -53 -9 -83 -14 -30
-6 -57 -8 -59 -5 -3 3 -10 1 -16 -4 -6 -5 -36 -12 -66 -15 -99 -12 -135 -17
-160 -22 -42 -8 -123 -17 -162 -18 -21 -1 -38 -3 -38 -6 0 -4 -10 -6 -22 -6
-13 -1 -43 -4 -68 -7 -25 -4 -72 -9 -105 -12 -33 -3 -76 -8 -95 -11 -19 -3
-55 -7 -80 -9 -25 -2 -65 -7 -90 -9 -46 -5 -144 -15 -215 -21 -47 -4 -160 -14
-225 -20 -25 -2 -83 -7 -130 -10 -47 -3 -107 -8 -135 -10 -27 -2 -97 -7 -155
-10 -58 -4 -134 -8 -170 -11 -36 -2 -92 -6 -125 -8 -33 -2 -127 -7 -210 -11
-82 -3 -179 -8 -215 -10 -459 -26 -1550 -26 -1869 1 -25 2 -89 6 -141 10 -98
6 -123 8 -225 18 -95 10 -158 17 -190 22 -16 2 -50 6 -75 9 -25 2 -61 7 -80 9
-81 12 -186 28 -205 32 -37 7 -140 26 -165 30 -14 2 -36 7 -50 10 -14 3 -32 7
-40 9 -8 2 -62 15 -120 29 -58 15 -114 28 -125 31 -34 8 -219 66 -240 75 -11
4 -56 23 -100 40 -164 66 -398 193 -418 226 -4 8 -12 14 -17 14 -6 0 -18 8
-28 18 -10 9 -36 33 -58 53 -22 20 -56 56 -75 80 -19 24 -37 46 -40 49 -13 10
-69 117 -84 160 -24 66 -26 78 -27 158 0 64 3 76 28 109 39 52 113 122 147
139 15 8 27 19 27 24 0 6 3 9 8 8 4 -1 33 15 64 35 88 57 366 189 423 201 6 2
28 10 50 20 21 9 46 18 55 20 8 2 27 8 43 14 15 7 38 14 50 16 12 2 41 11 65
20 23 8 42 13 42 11 0 -2 20 4 44 15 24 10 47 16 49 13 3 -3 12 -1 19 3 7 5
18 9 23 11 6 1 21 5 35 8 14 4 34 8 45 10 11 2 74 17 140 34 66 16 158 37 205
46 47 10 89 19 93 22 5 3 27 7 50 8 23 2 53 7 67 10 14 4 36 8 50 10 30 4 204
34 240 40 14 3 45 8 70 11 25 3 56 7 70 9 14 2 48 7 75 11 28 3 71 9 96 13 25
4 60 7 77 6 18 -1 32 1 32 5 0 4 6 7 13 7 40 2 156 14 181 18 16 3 61 8 100
10 39 2 71 5 71 5 0 1 16 3 35 5 19 1 67 6 105 9 151 15 280 25 390 31 39 2
102 6 140 9 88 7 286 17 385 20 42 1 81 5 87 9 6 4 14 3 18 -3 4 -6 11 -7 17
-4 6 4 65 8 130 9 65 1 120 4 122 6 5 4 307 2 584 -4z m3868 -1370 c0 -17 2
-32 3 -32 1 0 4 -25 6 -55 2 -30 7 -77 10 -105 3 -27 8 -75 11 -105 3 -30 7
-71 9 -90 3 -19 7 -60 10 -90 2 -30 7 -77 11 -105 3 -27 7 -68 9 -90 6 -60 12
-112 20 -190 4 -38 9 -83 10 -100 2 -16 4 -31 5 -32 1 -2 2 -16 3 -32 0 -22
-10 -38 -51 -74 -58 -52 -144 -111 -223 -153 -30 -16 -57 -33 -60 -37 -3 -5
-10 -9 -15 -9 -5 -1 -47 -19 -94 -40 -77 -36 -127 -58 -140 -63 -15 -5 -68
-27 -85 -35 -24 -11 -136 -53 -220 -82 -33 -11 -66 -25 -72 -31 -7 -5 -13 -7
-13 -4 0 3 -53 -13 -117 -35 -65 -22 -125 -41 -133 -43 -8 -2 -46 -13 -85 -25
-131 -40 -160 -49 -185 -54 -14 -3 -52 -13 -85 -22 -33 -9 -69 -18 -79 -20
-10 -2 -33 -8 -50 -13 -17 -6 -47 -13 -66 -17 -44 -7 -64 -12 -67 -14 -2 -2
-12 -4 -23 -5 -11 -1 -21 -3 -22 -5 -4 -2 -22 -6 -68 -14 -19 -3 -46 -8 -60
-11 -14 -3 -41 -8 -60 -11 -47 -8 -65 -12 -65 -14 0 -1 -13 -3 -30 -5 -16 -2
-73 -11 -125 -20 -119 -19 -144 -23 -200 -30 -25 -3 -56 -7 -70 -9 -14 -3 -50
-7 -81 -11 -31 -3 -65 -7 -75 -9 -11 -2 -50 -7 -89 -11 -38 -4 -81 -8 -95 -10
-30 -4 -107 -12 -175 -20 -27 -3 -77 -7 -110 -10 -33 -3 -82 -7 -110 -10 -141
-14 -345 -28 -412 -29 -29 -1 -53 -3 -53 -6 0 -3 -26 -5 -58 -6 -102 -1 -346
-16 -354 -20 -4 -3 -16 0 -27 6 -11 5 -22 6 -25 2 -3 -5 -49 -10 -103 -11
-200 -6 -992 -5 -1118 2 -71 3 -184 9 -250 13 -66 3 -132 7 -147 7 -16 0 -28
3 -28 6 0 3 -24 6 -53 7 -57 1 -178 10 -272 19 -33 3 -78 8 -100 10 -22 2 -58
6 -80 9 -43 7 -98 13 -185 22 -30 3 -66 7 -80 10 -14 3 -41 7 -60 10 -19 3
-80 12 -135 20 -55 9 -113 18 -130 20 -16 3 -52 9 -80 14 -27 5 -66 12 -85 15
-19 4 -53 10 -75 15 -22 5 -53 11 -70 14 -55 10 -106 21 -155 32 -14 3 -43 10
-65 14 -54 12 -121 28 -183 45 -58 16 -109 27 -119 28 -7 0 -13 3 -13 7 0 3
-8 6 -17 7 -18 2 -190 56 -228 72 -137 59 -248 113 -335 162 -41 24 -77 45
-80 49 -3 3 -31 23 -64 45 -56 39 -185 158 -237 220 -64 78 -154 238 -143 256
3 5 0 9 -6 9 -6 0 -8 5 -5 10 3 6 2 10 -4 10 -5 0 -8 8 -6 18 1 9 -1 24 -5 32
-4 8 -10 36 -12 63 -3 26 -8 50 -11 53 -4 4 -2 15 4 25 7 13 6 19 -1 19 -6 0
-8 5 -5 11 4 5 9 29 11 52 3 23 7 58 10 77 3 19 7 57 10 85 2 27 7 61 9 75 3
14 7 48 10 75 4 28 8 64 10 80 7 42 16 124 19 163 1 18 5 32 9 32 4 0 12 0 17
0 6 0 10 -9 10 -20 0 -11 5 -20 10 -20 6 0 14 -8 17 -17 10 -26 162 -175 211
-208 23 -15 42 -32 42 -38 0 -6 3 -7 7 -4 3 4 16 -1 27 -11 12 -11 41 -30 66
-43 25 -13 47 -27 50 -30 4 -5 125 -64 255 -124 16 -7 33 -11 37 -9 4 3 8 0 8
-5 0 -6 3 -10 8 -9 4 0 15 -2 24 -5 10 -4 26 -10 35 -14 10 -3 21 -5 26 -5 4
1 7 -3 7 -10 0 -6 3 -9 6 -5 4 3 22 0 40 -8 19 -8 34 -11 34 -8 0 3 7 -1 17
-8 9 -8 18 -13 19 -12 2 1 9 1 16 -1 7 -3 37 -10 65 -16 29 -7 53 -16 53 -22
0 -5 3 -7 8 -4 4 2 43 -4 87 -15 86 -21 205 -48 245 -55 14 -3 61 -11 105 -19
44 -8 94 -17 110 -20 45 -8 293 -43 353 -49 28 -3 73 -8 100 -11 26 -3 72 -8
102 -11 30 -3 87 -8 125 -9 39 -2 70 -5 70 -5 0 -4 63 -8 184 -14 68 -3 126
-8 129 -10 2 -3 13 -1 23 5 11 5 19 6 19 2 0 -11 203 -16 680 -15 491 0 680 4
686 14 3 4 14 3 25 -2 13 -8 25 -7 39 0 14 8 20 8 20 0 0 -6 4 -9 9 -6 5 3 80
9 167 12 88 4 175 7 194 8 19 1 41 5 48 9 6 5 12 4 12 0 0 -5 15 -7 33 -6 17
1 73 4 122 7 106 7 244 15 485 31 41 3 98 8 125 10 28 3 86 8 130 11 44 4 94
8 110 9 17 1 68 6 115 9 47 4 96 9 110 11 14 2 57 7 95 10 39 4 84 9 100 11
17 1 50 5 75 8 147 16 238 27 263 31 15 3 51 7 80 10 28 2 63 7 77 10 14 3 44
7 67 9 23 2 54 7 70 10 15 3 46 8 68 11 22 3 58 8 80 12 22 3 50 6 63 6 12 1
22 5 22 10 0 4 4 6 8 3 4 -3 28 0 53 6 24 5 62 12 84 13 22 2 40 4 40 5 0 3
79 18 125 25 14 2 53 10 88 18 34 9 62 13 62 11 0 -3 6 -2 12 2 7 5 19 9 28
10 8 1 26 5 40 8 14 4 36 8 50 11 14 3 40 9 58 14 18 5 35 10 37 10 32 3 298
78 400 113 172 58 416 165 430 188 4 6 11 8 16 5 5 -4 9 -1 9 5 0 6 4 9 9 6 4
-3 16 3 26 14 10 11 24 20 32 20 7 0 13 4 13 9 0 5 8 12 18 15 23 8 143 122
167 159 21 32 28 29 31 -16z m-8965 -927 c31 -99 111 -254 152 -294 9 -10 17
-21 17 -25 0 -4 37 -46 83 -93 131 -136 267 -234 461 -333 67 -34 135 -66 151
-73 17 -6 56 -22 87 -35 32 -14 60 -22 63 -19 3 3 5 -1 5 -8 0 -7 3 -11 6 -7
3 3 29 -3 58 -13 100 -36 379 -110 551 -146 44 -9 89 -18 100 -20 23 -5 115
-23 160 -30 17 -3 44 -9 60 -13 17 -4 40 -7 53 -6 12 1 22 -1 22 -4 0 -3 12
-7 28 -8 15 0 38 -4 52 -7 14 -3 41 -7 60 -10 19 -2 46 -7 60 -10 14 -2 50 -8
80 -12 71 -8 106 -13 155 -20 22 -3 59 -6 82 -7 24 -1 43 -4 43 -7 0 -3 12 -6
28 -6 15 -1 56 -5 92 -9 143 -16 220 -23 305 -30 39 -3 97 -8 130 -11 114 -10
395 -25 507 -27 49 -1 88 -6 88 -10 0 -4 8 -3 19 2 10 6 21 7 25 4 9 -9 728
-10 748 -1 10 5 19 4 23 -2 4 -6 10 -8 14 -6 4 3 88 8 187 11 255 10 339 13
339 15 0 1 43 3 97 5 53 1 100 5 105 7 4 3 36 4 70 4 35 -1 63 1 63 4 0 3 33
6 73 7 39 1 92 5 117 8 25 3 77 7 115 10 78 5 113 9 230 20 44 4 92 8 108 8
15 0 27 3 27 6 0 3 19 7 43 8 23 1 65 4 92 7 28 3 70 8 95 11 25 2 65 7 90 11
101 13 116 15 145 19 93 11 132 16 145 20 8 2 38 7 65 11 28 3 59 8 70 11 11
2 36 6 55 9 42 6 167 29 267 50 40 8 85 17 100 20 15 3 64 14 108 25 44 12 87
22 95 25 82 20 183 48 218 60 24 8 48 12 53 9 5 -4 9 -1 9 5 0 7 7 10 15 6 8
-3 15 -2 15 2 0 7 62 26 115 37 11 2 21 4 23 5 1 2 5 3 10 4 17 4 88 29 97 35
6 3 15 6 20 6 19 1 180 57 192 67 7 5 17 7 23 3 5 -3 10 -1 10 6 0 7 3 10 6 7
4 -5 54 12 149 51 11 5 56 23 100 41 96 40 324 151 380 186 22 13 49 28 60 33
11 5 33 21 49 35 16 14 32 26 36 26 3 0 29 21 57 48 l50 47 57 -75 c68 -89
116 -161 116 -175 0 -5 6 -22 14 -37 19 -37 34 -86 41 -138 4 -24 9 -48 11
-52 2 -3 0 -9 -5 -12 -5 -3 -5 -21 -1 -41 4 -19 5 -35 1 -35 -4 0 -8 -8 -9
-17 -3 -27 -8 -45 -20 -76 -7 -16 -12 -33 -12 -38 0 -5 -5 -9 -12 -9 -6 0 -9
-3 -5 -6 20 -20 -215 -274 -253 -274 -6 0 -10 -4 -10 -8 0 -9 -187 -106 -193
-100 -1 2 -14 -4 -27 -13 -14 -8 -47 -23 -75 -33 -27 -10 -59 -21 -70 -26 -25
-11 -247 -81 -266 -83 -8 -2 -20 -6 -26 -10 -7 -4 -25 -10 -40 -12 -29 -4 -40
-7 -108 -25 -22 -6 -49 -13 -60 -15 -11 -2 -40 -9 -65 -15 -25 -7 -52 -13 -60
-15 -8 -2 -37 -9 -65 -15 -27 -6 -61 -13 -75 -15 -14 -2 -26 -4 -27 -6 -2 -1
-11 -2 -20 -3 -10 -1 -31 -5 -48 -9 -16 -4 -41 -9 -55 -11 -14 -3 -46 -9 -72
-14 -26 -5 -50 -7 -53 -4 -3 3 -5 1 -5 -5 0 -5 -10 -9 -22 -8 -13 1 -39 -2
-58 -7 -19 -5 -51 -10 -70 -13 -19 -2 -48 -6 -65 -9 -96 -16 -166 -27 -215
-32 -30 -4 -57 -9 -60 -13 -3 -3 -23 -7 -45 -7 -22 -1 -62 -5 -90 -8 -27 -4
-65 -9 -84 -11 -19 -3 -48 -6 -65 -9 -35 -5 -99 -13 -166 -21 -25 -2 -65 -7
-90 -10 -25 -2 -67 -7 -95 -10 -27 -2 -70 -7 -95 -10 -55 -6 -125 -13 -205
-20 -110 -9 -170 -15 -210 -19 -22 -3 -82 -7 -134 -11 -51 -3 -112 -8 -135
-11 -22 -2 -79 -6 -126 -9 -47 -3 -114 -8 -150 -11 -36 -2 -99 -6 -140 -9 -41
-2 -75 -4 -75 -5 0 -1 -154 -9 -266 -14 -48 -2 -91 -6 -97 -10 -6 -3 -13 -2
-17 4 -4 6 -11 8 -16 4 -14 -9 -69 -12 -69 -4 0 4 -20 4 -45 0 -24 -4 -50 -3
-57 1 -6 4 -19 4 -28 -1 -9 -5 -22 -5 -29 -1 -7 5 -30 5 -51 1 -24 -4 -43 -3
-49 3 -8 8 -11 7 -11 -1 0 -8 -7 -9 -26 -2 -16 7 -23 7 -19 0 4 -6 -2 -7 -17
-1 -13 5 -33 5 -45 0 -13 -5 -23 -5 -23 -1 0 4 -60 8 -133 8 -134 1 -395 10
-522 18 -181 11 -303 18 -337 19 -21 1 -38 6 -38 11 0 4 -6 3 -13 -3 -8 -6
-17 -8 -20 -4 -4 3 -30 7 -59 9 -60 2 -182 12 -248 19 -25 3 -72 7 -105 11
-33 3 -76 7 -95 9 -19 2 -62 6 -95 9 -33 3 -76 9 -95 12 -19 4 -53 8 -75 9
-22 2 -53 5 -68 8 -31 6 -152 20 -179 21 -10 0 -18 3 -18 6 0 3 -10 6 -22 7
-42 1 -127 11 -135 16 -4 3 -28 8 -53 11 -25 3 -55 8 -66 10 -12 2 -39 7 -60
10 -22 3 -52 9 -67 12 -16 3 -38 7 -50 9 -12 2 -47 8 -77 14 -30 6 -66 13 -80
16 -14 3 -38 8 -55 11 -16 4 -39 8 -50 10 -11 1 -20 3 -20 4 0 2 -14 5 -60 13
-16 3 -41 9 -55 12 -14 4 -37 8 -52 10 -14 2 -32 7 -40 11 -7 4 -19 9 -28 10
-8 1 -25 5 -37 8 -13 3 -32 8 -43 11 -32 8 -64 16 -80 20 -8 2 -17 4 -20 5 -3
1 -9 2 -14 1 -4 -1 -14 3 -22 10 -7 6 -18 8 -24 4 -5 -3 -10 -2 -10 2 0 5 -8
9 -17 10 -19 1 -37 6 -63 16 -27 10 -125 39 -137 41 -7 1 -16 5 -19 9 -4 4
-13 7 -20 7 -7 0 -25 5 -41 12 -15 6 -34 12 -40 14 -16 3 -101 33 -128 45 -32
14 -217 90 -250 103 -16 6 -33 15 -36 19 -3 5 -12 10 -20 12 -39 9 -59 18 -59
28 0 6 -3 8 -6 4 -3 -3 -24 5 -45 19 -21 13 -42 24 -46 24 -8 0 -145 80 -153
89 -3 3 -25 22 -50 41 -25 19 -46 37 -48 41 -2 4 -21 26 -42 50 -49 54 -126
208 -135 269 -4 25 -11 53 -17 63 -5 10 -5 17 1 17 6 0 7 12 2 28 -17 66 14
240 64 357 43 102 59 135 67 135 4 0 8 6 8 13 0 15 98 168 114 179 7 5 12 -2
14 -15 2 -12 12 -51 23 -87z"/>
<path d="M4357 13164 c-1 -1 -39 -4 -84 -8 -115 -8 -209 -31 -268 -66 -27 -16
-46 -30 -41 -30 6 0 2 -6 -8 -13 -10 -7 -24 -35 -31 -62 -26 -105 45 -186 208
-239 56 -18 98 -29 122 -33 38 -5 100 -14 145 -20 63 -8 343 -9 415 -1 33 4
89 16 125 27 65 21 146 72 133 85 -3 3 -2 6 4 6 14 0 33 46 33 81 0 69 -48
133 -132 172 -86 41 -193 69 -308 82 -79 9 -308 23 -313 19z"/>
</g>
</svg>
