<?xml version="1.0" standalone="no"?>
<!DOCTYPE svg PUBLIC "-//W3C//DTD SVG 20010904//EN"
 "http://www.w3.org/TR/2001/REC-SVG-20010904/DTD/svg10.dtd">
<svg version="1.0" xmlns="http://www.w3.org/2000/svg"
 width="862.000000pt" height="862.000000pt" viewBox="0 0 862.000000 862.000000"
 preserveAspectRatio="xMidYMid meet">
<metadata>
Created by potrace 1.14, written by Peter Selinger 2001-2017
</metadata>
<g transform="translate(0.000000,862.000000) scale(0.100000,-0.100000)"
fill="#000000" stroke="none">
<path d="M5890 8434 c-162 -32 -320 -105 -450 -208 -58 -46 -208 -205 -245
-259 -114 -168 -213 -412 -250 -617 -12 -69 -27 -171 -32 -220 -7 -71 -10
-370 -3 -370 3 0 5 -24 6 -53 1 -28 4 -77 8 -107 4 -30 9 -68 11 -85 2 -16 6
-40 8 -51 3 -12 8 -39 11 -60 4 -21 13 -66 21 -100 8 -34 16 -73 19 -85 9 -50
85 -288 116 -364 17 -44 42 -94 56 -112 51 -67 150 -105 236 -92 46 8 299 124
306 141 2 5 7 8 12 8 27 0 287 175 427 287 128 102 343 317 403 403 13 19 27
37 31 40 30 23 219 348 219 378 0 7 3 12 8 12 8 0 18 29 62 169 17 51 33 114
36 140 3 25 9 65 14 88 7 40 5 248 -4 324 -2 20 -8 45 -14 56 -6 11 -9 23 -6
26 9 9 -49 171 -91 253 -105 204 -274 356 -474 426 -132 46 -307 59 -441 32z"/>
<path d="M1346 7679 c-27 -4 -65 -10 -85 -14 -20 -3 -52 -8 -71 -11 -19 -2
-53 -10 -75 -16 -22 -6 -47 -13 -55 -14 -8 -2 -42 -13 -75 -24 -33 -11 -64
-22 -70 -24 -28 -9 -59 -22 -155 -69 -58 -28 -107 -53 -110 -57 -3 -3 -28 -20
-56 -38 -28 -18 -61 -40 -72 -50 -12 -9 -35 -28 -53 -42 -46 -35 -153 -143
-186 -188 -15 -20 -33 -43 -40 -49 -6 -7 -21 -29 -34 -50 -13 -21 -26 -40 -29
-43 -15 -12 -118 -244 -125 -280 -6 -32 -19 -77 -23 -85 -4 -5 -7 -21 -8 -35
-1 -14 -2 -25 -4 -25 -17 0 -20 -318 -4 -420 24 -154 88 -339 161 -468 18 -32
33 -63 33 -67 0 -5 3 -10 8 -12 11 -5 52 -66 52 -78 0 -5 4 -10 8 -10 4 0 15
-12 24 -27 9 -16 31 -46 50 -67 222 -262 499 -458 828 -587 134 -52 389 -119
515 -135 22 -3 47 -8 55 -10 8 -3 40 -8 70 -10 30 -3 66 -7 80 -9 144 -27 625
-21 840 10 19 3 53 7 75 10 22 2 56 7 75 10 19 4 44 8 55 10 29 4 94 16 119
21 11 2 33 6 48 9 16 3 58 12 95 21 38 9 75 17 83 19 13 3 93 24 205 55 65 18
203 61 255 81 30 12 62 22 70 24 8 2 43 15 77 29 35 14 69 26 78 26 8 0 15 5
15 10 0 6 6 10 13 10 41 0 411 177 460 219 48 42 81 122 80 192 -1 55 -18 99
-73 194 -13 22 -28 49 -34 60 -6 11 -28 46 -49 78 -20 31 -37 61 -37 66 0 5
-3 11 -7 13 -11 4 -53 65 -53 76 0 5 -9 17 -20 27 -11 10 -20 24 -20 31 0 7
-4 14 -8 16 -4 2 -30 35 -57 73 -28 39 -55 77 -62 85 -7 8 -43 54 -80 101 -67
84 -123 152 -213 253 -64 72 -305 311 -380 376 -388 336 -774 564 -1196 706
-55 18 -109 35 -120 37 -10 2 -26 7 -34 10 -19 7 -162 36 -215 43 -22 3 -65 9
-95 14 -69 10 -378 9 -444 -1z"/>
<path d="M5983 5202 c-25 -4 -30 -20 -40 -128 -15 -155 -6 -650 13 -748 2 -12
7 -50 10 -85 3 -36 7 -67 9 -70 1 -3 6 -30 10 -60 4 -30 9 -63 11 -75 2 -12 8
-46 14 -76 11 -57 15 -82 27 -140 10 -47 10 -50 13 -52 1 -2 3 -14 5 -28 1
-14 17 -79 34 -145 18 -66 34 -129 36 -140 13 -64 169 -526 200 -592 8 -17 15
-34 15 -37 0 -3 8 -25 19 -49 10 -23 42 -96 71 -162 77 -175 256 -526 273
-533 4 -2 7 -10 7 -17 0 -8 6 -20 13 -27 7 -7 14 -15 14 -18 6 -33 302 -478
325 -488 5 -2 8 -10 8 -17 0 -8 6 -18 13 -22 7 -4 20 -20 29 -34 9 -14 23 -32
30 -40 7 -8 24 -27 36 -43 12 -16 46 -56 75 -89 28 -33 60 -69 70 -81 66 -76
262 -266 336 -326 24 -19 49 -41 57 -47 10 -10 22 -4 61 30 87 76 244 242 303
319 8 11 24 32 36 46 45 58 133 191 177 271 47 84 128 247 133 266 1 6 12 35
24 65 20 49 57 158 64 185 2 6 10 35 20 66 9 31 18 70 21 87 2 17 6 35 8 39 3
4 8 24 11 43 3 19 10 57 15 85 5 27 7 53 5 57 -3 5 -2 8 3 8 12 0 18 125 17
350 0 170 -10 302 -30 390 -13 62 -16 76 -19 95 -17 97 -88 339 -107 363 -6 6
-8 12 -5 12 14 0 -125 288 -196 405 -42 70 -160 235 -230 322 -33 40 -258 262
-292 288 -22 17 -51 40 -65 53 -14 12 -56 44 -95 70 -38 26 -71 50 -73 55 -2
4 -8 7 -12 7 -5 0 -28 13 -52 29 -61 41 -262 144 -333 170 -33 13 -72 29 -87
37 -16 9 -28 13 -28 9 0 -3 -11 2 -25 11 -14 9 -25 14 -25 11 0 -4 -19 1 -42
9 -54 19 -212 61 -258 68 -19 3 -46 8 -60 11 -13 2 -40 7 -60 10 -20 3 -47 7
-60 10 -66 13 -418 25 -477 17z"/>
<path d="M5372 5081 c-28 -10 -52 -16 -52 -14 0 2 -10 -3 -22 -11 -12 -9 -29
-16 -37 -16 -41 0 -390 -172 -561 -278 -41 -25 -77 -49 -80 -53 -3 -3 -16 -12
-30 -19 -27 -14 -233 -165 -290 -212 -19 -16 -62 -53 -94 -81 -32 -29 -66 -57
-75 -63 -9 -7 -62 -57 -119 -112 -77 -74 -106 -109 -111 -133 -13 -62 -1 -550
16 -624 2 -11 6 -36 8 -55 2 -19 7 -60 10 -90 3 -30 8 -64 11 -75 2 -11 6 -33
9 -50 7 -50 15 -98 25 -145 5 -25 12 -56 14 -70 4 -26 25 -115 41 -180 3 -11
7 -28 9 -37 2 -10 11 -45 21 -78 9 -33 24 -90 34 -126 10 -37 21 -71 24 -76 3
-5 8 -20 10 -34 6 -30 54 -174 73 -215 7 -17 15 -40 17 -50 2 -11 8 -28 12
-39 58 -146 121 -302 143 -350 48 -108 215 -440 230 -457 8 -10 12 -18 9 -18
-3 0 12 -28 33 -62 22 -35 49 -82 61 -105 13 -24 26 -43 31 -43 4 0 8 -5 8
-11 0 -8 61 -109 104 -170 58 -85 101 -146 108 -154 4 -5 34 -44 65 -85 115
-152 257 -313 373 -426 123 -119 84 -107 330 -100 118 3 231 8 250 11 19 2 64
6 100 10 36 3 90 10 120 15 30 5 71 12 90 14 63 8 115 17 132 22 9 3 27 7 40
9 21 4 127 27 138 30 3 1 25 7 50 14 25 7 50 14 55 15 32 7 104 29 130 39 17
6 35 12 40 13 24 4 211 78 309 122 l107 49 -52 49 c-147 138 -305 302 -389
404 -24 30 -53 62 -62 71 -10 9 -18 21 -18 27 0 6 -4 12 -8 14 -4 2 -23 23
-42 48 -19 25 -37 47 -41 50 -3 3 -21 28 -40 55 -18 28 -36 52 -40 55 -3 3
-25 34 -50 70 -24 36 -47 67 -51 68 -5 2 -8 8 -8 14 0 5 -11 24 -25 42 -14 18
-25 38 -25 44 0 6 -4 12 -8 14 -11 4 -102 152 -102 166 0 7 -4 12 -9 12 -5 0
-17 17 -26 38 -10 20 -21 39 -24 42 -3 3 -14 21 -25 40 -10 19 -35 67 -55 105
-21 39 -44 81 -51 95 -7 14 -17 32 -22 40 -4 8 -12 24 -17 35 -5 11 -34 74
-65 139 -86 181 -172 378 -181 416 -4 13 -48 129 -75 195 -7 17 -61 179 -65
195 -1 3 -4 12 -8 20 -9 21 -57 186 -62 209 -2 11 -9 29 -15 40 -6 12 -9 21
-6 21 3 0 -4 33 -16 73 -24 86 -23 82 -32 132 -4 22 -12 51 -17 65 -5 14 -11
40 -14 58 -12 80 -15 97 -25 131 -5 20 -12 54 -15 76 -2 22 -7 51 -10 65 -3
14 -7 39 -10 55 -2 17 -8 62 -14 100 -17 122 -22 168 -37 370 -8 100 -8 496
-1 563 3 23 2 44 -2 46 -4 3 -30 -4 -59 -13z"/>
<path d="M3345 3433 c-27 -41 -54 -82 -60 -91 -5 -9 -16 -21 -22 -25 -7 -4
-13 -13 -13 -19 0 -6 -11 -26 -25 -44 -14 -18 -25 -37 -25 -43 0 -6 -3 -11 -8
-11 -4 0 -12 -9 -17 -20 -6 -10 -49 -84 -96 -162 -47 -79 -89 -150 -92 -158
-4 -8 -28 -51 -52 -95 -61 -109 -180 -348 -177 -357 1 -5 -3 -8 -8 -8 -6 0
-10 -5 -10 -11 0 -5 -18 -49 -41 -97 -22 -48 -44 -96 -49 -107 -30 -68 -51
-118 -69 -161 -10 -27 -27 -67 -36 -89 -10 -22 -17 -41 -16 -42 0 -2 -11 -29
-24 -60 -14 -32 -27 -64 -29 -73 -1 -8 -9 -31 -18 -50 -12 -29 -39 -101 -43
-120 -1 -3 -4 -12 -8 -20 -6 -16 -50 -151 -52 -160 -1 -3 -7 -25 -14 -50 -7
-25 -15 -56 -18 -70 -2 -13 -6 -26 -9 -29 -2 -2 1 -10 7 -18 7 -8 8 -13 1 -13
-12 0 11 -83 33 -117 17 -25 72 -83 79 -83 3 0 60 -29 127 -65 67 -35 131 -67
143 -71 12 -3 29 -14 40 -23 10 -9 19 -14 20 -12 0 2 32 -10 71 -28 38 -18
128 -57 200 -88 71 -30 144 -61 161 -69 54 -24 375 -140 479 -173 55 -18 109
-37 120 -42 11 -5 38 -13 60 -18 48 -11 184 -50 205 -58 8 -3 22 -7 30 -9 9
-2 81 -19 160 -39 80 -19 159 -38 175 -41 17 -3 46 -9 65 -14 19 -5 51 -11 70
-14 19 -3 46 -8 60 -11 14 -3 41 -8 60 -11 19 -3 41 -7 48 -9 14 -5 -24 48
-95 133 -13 15 -23 31 -23 35 0 4 -10 18 -22 30 -13 12 -41 49 -63 81 -22 33
-46 65 -53 73 -7 7 -10 13 -5 13 4 0 3 4 -3 8 -11 7 -174 256 -174 266 0 3
-12 22 -26 43 -14 21 -30 47 -35 58 -5 11 -17 34 -27 50 -10 17 -32 55 -48 85
-16 30 -31 57 -34 60 -10 10 -60 116 -60 128 0 6 -3 12 -8 12 -4 0 -21 30 -37
68 -16 37 -34 70 -39 74 -6 4 -8 8 -4 8 3 0 -10 33 -29 73 -19 39 -36 78 -37
85 -1 7 -8 18 -14 24 -7 7 -12 17 -12 24 0 7 -14 44 -30 83 -48 111 -53 125
-57 146 -2 10 -8 22 -14 26 -6 3 -9 8 -8 10 3 4 -77 244 -91 269 -4 9 -11 31
-15 50 -4 19 -12 41 -17 48 -6 6 -8 12 -4 12 3 0 0 16 -8 35 -9 20 -15 36 -15
38 1 1 -5 22 -12 47 -16 59 -20 72 -23 90 -2 8 -6 22 -9 30 -5 15 -18 63 -23
89 -2 8 -5 25 -9 38 -3 13 -6 25 -6 28 0 2 -5 19 -10 37 -5 18 -19 78 -30 133
-11 55 -22 107 -24 115 -1 8 -8 49 -15 90 -6 41 -14 86 -16 100 -2 14 -7 43
-10 65 -2 22 -7 50 -9 62 -3 12 -8 57 -11 100 -3 43 -9 83 -12 89 -4 6 -29
-21 -57 -63z"/>
</g>
</svg>
